<svg width="1921" height="765" viewBox="0 0 1921 765" fill="none" xmlns="http://www.w3.org/2000/svg">
<g filter="url(#filter0_d)">
<path d="M0 662V191C0 191 119.5 116.482 295 75C470.5 33.5182 621 59.5 713.5 97.5C810 137.143 856.5 179.571 913.5 209C1005.5 256.5 1078.75 289 1201.5 289C1487.5 289 1785.5 16 1920.5 16V686.5C1920.5 686.5 1774.85 660.039 1601 667C1454.64 672.861 1333 695.5 1174 724C866.5 779.118 805 685.593 626.5 610.5C353.5 495.652 150 539 0 662Z" fill="#181818"/>
</g>
<defs>
<filter id="filter0_d" x="-20" y="0" width="1960.5" height="764.606" filterUnits="userSpaceOnUse" color-interpolation-filters="sRGB">
<feFlood flood-opacity="0" result="BackgroundImageFix"/>
<feColorMatrix in="SourceAlpha" type="matrix" values="0 0 0 0 0 0 0 0 0 0 0 0 0 0 0 0 0 0 127 0" result="hardAlpha"/>
<feOffset dy="4"/>
<feGaussianBlur stdDeviation="10"/>
<feComposite in2="hardAlpha" operator="out"/>
<feColorMatrix type="matrix" values="0 0 0 0 0 0 0 0 0 0 0 0 0 0 0 0 0 0 0.4 0"/>
<feBlend mode="normal" in2="BackgroundImageFix" result="effect1_dropShadow"/>
<feBlend mode="normal" in="SourceGraphic" in2="effect1_dropShadow" result="shape"/>
</filter>
</defs>
</svg>
