<svg width="1921" height="613" viewBox="0 0 1921 613" fill="none" xmlns="http://www.w3.org/2000/svg">
<g filter="url(#filter0_d)">
<path d="M851 479.5C596 489.499 631.5 558.999 336 587.999C170.589 604.232 67.2655 575.597 -8.78572e-05 531.431L-0.000165954 444.005C-0.000165939 417.509 -0.000165926 393.004 -0.000244141 368.5L-8.78572e-05 271V190.317C78.411 213.553 174.695 229.499 288 229.499C650 229.499 698.087 20.0016 954 20C1095 19.9991 1180.5 61.5001 1392.5 155.5C1556.94 228.413 1775.02 148.61 1921 78.0311V168V236V365.5V442.309C1840.53 481.343 1777.74 538.354 1534 558.999C1145.89 591.871 1186.3 466.353 851 479.5Z" fill="#181818"/>
</g>
<defs>
<filter id="filter0_d" x="-20.0002" y="0" width="1961" height="612.595" filterUnits="userSpaceOnUse" color-interpolation-filters="sRGB">
<feFlood flood-opacity="0" result="BackgroundImageFix"/>
<feColorMatrix in="SourceAlpha" type="matrix" values="0 0 0 0 0 0 0 0 0 0 0 0 0 0 0 0 0 0 127 0" result="hardAlpha"/>
<feOffset/>
<feGaussianBlur stdDeviation="10"/>
<feComposite in2="hardAlpha" operator="out"/>
<feColorMatrix type="matrix" values="0 0 0 0 0 0 0 0 0 0 0 0 0 0 0 0 0 0 0.4 0"/>
<feBlend mode="normal" in2="BackgroundImageFix" result="effect1_dropShadow"/>
<feBlend mode="normal" in="SourceGraphic" in2="effect1_dropShadow" result="shape"/>
</filter>
</defs>
</svg>
