<svg width="554" height="425" viewBox="0 0 554 425" fill="none" xmlns="http://www.w3.org/2000/svg">
<g filter="url(#filter0_d)">
<g filter="url(#filter1_d)">
<rect x="20" y="20" width="495" height="385" rx="8" fill="white"/>
<path d="M38.9067 38.238H51.9867V41.3226H42.11V46.8097H50.3554V49.8944H42.11V55.9154H51.9867V59H38.9067V38.238ZM58.8409 40.0473C58.1489 40.0473 57.6348 39.8693 57.2986 39.5134C56.9625 39.1575 56.7944 38.6928 56.7944 38.1194C56.7944 37.625 56.9625 37.1801 57.2986 36.7847C57.6348 36.3892 58.1489 36.1915 58.8409 36.1915C59.533 36.1915 60.0471 36.3694 60.3833 36.7253C60.7194 37.0813 60.8875 37.5459 60.8875 38.1194C60.8875 38.6137 60.7194 39.0586 60.3833 39.4541C60.0471 39.8495 59.533 40.0473 58.8409 40.0473ZM60.4129 59H57.3579V43.4285H60.4129V59ZM73.6459 43.1022C75.0498 43.1022 76.1373 43.389 76.9085 43.9624C77.6796 44.5358 78.2135 45.307 78.5101 46.2759C78.8265 47.2448 78.9847 48.3224 78.9847 49.5088V59H75.9297V49.7164C75.9297 48.965 75.8308 48.2927 75.6331 47.6995C75.4354 47.1063 75.0992 46.6417 74.6247 46.3055C74.1501 45.9694 73.4877 45.831 72.6374 45.8903C71.8465 45.8903 71.1446 46.0584 70.5316 46.3945C69.9186 46.7306 69.4342 47.1755 69.0782 47.7292C68.7223 48.2829 68.5444 48.8958 68.5444 49.5681V59H65.4894V43.4285H68.5444V45.8903C69.0189 45.1587 69.711 44.516 70.6206 43.9624C71.5301 43.389 72.5386 43.1022 73.6459 43.1022ZM92.556 47.5216C92.0023 46.9679 91.3696 46.5131 90.6577 46.1572C89.9657 45.8013 89.323 45.6233 88.7298 45.6233C88.3146 45.6233 87.8993 45.6728 87.4841 45.7716C87.0886 45.8705 86.7525 46.0584 86.4757 46.3352C86.1988 46.5922 86.0604 46.9778 86.0604 47.4919C86.0802 48.2038 86.3966 48.708 87.0095 49.0046C87.6423 49.3012 88.4233 49.5681 89.3527 49.8054C90.1634 50.0229 90.9543 50.2997 91.7255 50.6359C92.4966 50.9523 93.1294 51.4268 93.6237 52.0596C94.1378 52.6725 94.3949 53.5426 94.3949 54.6696C94.3949 55.6385 94.118 56.469 93.5644 57.1611C93.0305 57.8531 92.3286 58.387 91.4585 58.7627C90.6083 59.1186 89.7086 59.2966 88.7595 59.2966C87.6324 59.2966 86.5152 59.0989 85.4079 58.7034C84.3204 58.2882 83.391 57.5862 82.6199 56.5975L84.6961 54.8179C85.2299 55.4309 85.833 55.9154 86.5053 56.2713C87.1974 56.6074 88.0378 56.7755 89.0264 56.7755C89.4021 56.7755 89.7778 56.7162 90.1535 56.5975C90.5292 56.4591 90.8456 56.2515 91.1026 55.9747C91.3794 55.6781 91.5179 55.2826 91.5179 54.7883C91.5179 54.3137 91.3696 53.9479 91.073 53.6909C90.7961 53.414 90.4204 53.1965 89.9459 53.0383C89.4713 52.8604 88.9473 52.7022 88.3739 52.5638C87.5236 52.3265 86.6833 52.0398 85.8528 51.7036C85.0421 51.3477 84.3599 50.8534 83.8063 50.2206C83.2724 49.5681 83.0054 48.6882 83.0054 47.5809C83.0054 46.6516 83.2625 45.8606 83.7766 45.2081C84.3105 44.5358 85.0025 44.0217 85.8528 43.6658C86.703 43.2901 87.6126 43.1022 88.5815 43.1022C89.5109 43.1022 90.5193 43.3 91.6068 43.6954C92.6944 44.0909 93.5941 44.7237 94.3059 45.5937L92.556 47.5216ZM112.705 43.4285V59H109.621V56.5975C109.146 57.2501 108.444 57.863 107.515 58.4365C106.586 59.0099 105.508 59.2966 104.282 59.2966C102.977 59.2966 101.781 58.9506 100.693 58.2585C99.6254 57.5664 98.7752 56.6074 98.1424 55.3815C97.5097 54.1555 97.1933 52.7516 97.1933 51.1698C97.1933 49.5879 97.5196 48.1939 98.1721 46.9877C98.8246 45.7618 99.7243 44.8126 100.871 44.1403C102.018 43.4483 103.323 43.1022 104.786 43.1022C105.874 43.1022 106.823 43.3395 107.634 43.8141C108.464 44.2886 109.127 44.8423 109.621 45.475V43.4285H112.705ZM104.994 56.4789C105.943 56.4789 106.773 56.2515 107.485 55.7967C108.197 55.3222 108.751 54.6894 109.146 53.8985C109.542 53.0878 109.739 52.1782 109.739 51.1698C109.739 50.1811 109.542 49.2913 109.146 48.5004C108.751 47.7094 108.197 47.0866 107.485 46.6318C106.773 46.1572 105.943 45.9199 104.994 45.9199C104.084 45.9199 103.274 46.1473 102.562 46.6021C101.85 47.0569 101.296 47.6798 100.901 48.4707C100.505 49.2616 100.308 50.1613 100.308 51.1698C100.308 52.1782 100.505 53.0878 100.901 53.8985C101.296 54.6894 101.85 55.3222 102.562 55.7967C103.274 56.2515 104.084 56.4789 104.994 56.4789ZM125.33 43.1616C126.615 43.1616 127.644 43.4582 128.415 44.0514C129.186 44.6248 129.74 45.4157 130.076 46.4242C130.353 45.9298 130.758 45.4355 131.292 44.9412C131.826 44.4271 132.449 44.0019 133.16 43.6658C133.872 43.3296 134.634 43.1616 135.444 43.1616C136.789 43.1616 137.837 43.4582 138.588 44.0514C139.34 44.6248 139.864 45.4058 140.16 46.3945C140.477 47.3634 140.635 48.4509 140.635 49.6571V59H137.55V49.8351C137.55 48.6882 137.333 47.7589 136.898 47.047C136.463 46.3352 135.642 45.9793 134.436 45.9793C133.289 45.9793 132.34 46.3451 131.588 47.0767C130.857 47.7885 130.491 48.6585 130.491 49.6868V59H127.406V49.7757C127.406 48.6684 127.169 47.7589 126.695 47.047C126.22 46.3352 125.439 45.9793 124.351 45.9793C123.6 45.9793 122.928 46.1473 122.335 46.4835C121.741 46.8196 121.277 47.2645 120.941 47.8182C120.604 48.3521 120.436 48.9551 120.436 49.6274V59H117.352V43.4285H120.436V45.9199C120.911 45.2081 121.573 44.5754 122.424 44.0217C123.294 43.4483 124.262 43.1616 125.33 43.1616ZM145.165 59V37.0516H148.22V50.3986L155.249 43.4285H159.372L152.076 50.28L159.58 59H155.664L149.91 52.2968L148.22 53.8985V59H145.165ZM175.173 56.9535H175.143C174.51 57.5664 173.64 58.1102 172.533 58.5848C171.426 59.0593 170.269 59.2966 169.063 59.2966C167.441 59.2966 166.008 58.9605 164.762 58.2882C163.536 57.5961 162.577 56.6569 161.885 55.4705C161.193 54.2643 160.847 52.8999 160.847 51.3774C160.847 49.6373 161.213 48.1543 161.944 46.9284C162.676 45.6827 163.645 44.7335 164.851 44.081C166.057 43.4087 167.372 43.0726 168.796 43.0726C170.101 43.0726 171.287 43.3988 172.355 44.0514C173.423 44.6841 174.273 45.564 174.906 46.6911C175.539 47.8182 175.855 49.1331 175.855 50.6359L175.825 51.9409H163.902C164.08 53.3448 164.653 54.462 165.622 55.2925C166.611 56.1032 167.857 56.5086 169.359 56.5086C170.447 56.5086 171.327 56.3108 171.999 55.9154C172.671 55.5001 173.225 55.1047 173.66 54.729L175.173 56.9535ZM168.796 45.8903C167.629 45.8903 166.611 46.1671 165.741 46.7208C164.871 47.2546 164.297 48.184 164.021 49.5088H172.741V49.3012C172.681 48.6289 172.454 48.0357 172.059 47.5216C171.683 47.0075 171.208 46.612 170.635 46.3352C170.061 46.0386 169.448 45.8903 168.796 45.8903ZM181.662 40.0473C180.97 40.0473 180.455 39.8693 180.119 39.5134C179.783 39.1575 179.615 38.6928 179.615 38.1194C179.615 37.625 179.783 37.1801 180.119 36.7847C180.455 36.3892 180.97 36.1915 181.662 36.1915C182.354 36.1915 182.868 36.3694 183.204 36.7253C183.54 37.0813 183.708 37.5459 183.708 38.1194C183.708 38.6137 183.54 39.0586 183.204 39.4541C182.868 39.8495 182.354 40.0473 181.662 40.0473ZM183.234 59H180.179V43.4285H183.234V59ZM193.293 59H190.238V46.3945H187.005V43.4285H190.238V39.4541H193.293V43.4285H196.911V46.3945H193.293V59Z" fill="#263238"/>
<path d="M43.442 79H37.3198V77.167H39.3911V68.002H37.3198V66.169H43.442V68.002H41.3707V77.167H43.442V79ZM51.3638 69.1751C52.2314 69.1751 52.9035 69.3523 53.3801 69.7067C53.8567 70.0611 54.1866 70.5376 54.3699 71.1364C54.5654 71.7352 54.6632 72.4012 54.6632 73.1344V79H52.7752V73.2627C52.7752 72.7983 52.7141 72.3829 52.5919 72.0163C52.4697 71.6497 52.262 71.3625 51.9687 71.1548C51.6754 70.947 51.266 70.8615 50.7406 70.8981C50.2518 70.8981 49.818 71.002 49.4392 71.2097C49.0603 71.4175 48.7609 71.6924 48.541 72.0346C48.321 72.3768 48.211 72.7556 48.211 73.1711V79H46.3231V69.3767H48.211V70.8981C48.5043 70.446 48.932 70.0488 49.4941 69.7067C50.0563 69.3523 50.6795 69.1751 51.3638 69.1751ZM68.3608 66.169C69.3506 66.169 70.2182 66.3401 70.9637 66.6822C71.7213 67.0122 72.3506 67.4765 72.8517 68.0753C73.3527 68.6619 73.7315 69.3462 73.9881 70.1283C74.2447 70.8981 74.373 71.7169 74.373 72.5845C74.373 73.7576 74.147 74.833 73.6948 75.8106C73.2427 76.776 72.5706 77.5519 71.6785 78.1385C70.7865 78.7128 69.6806 79 68.3608 79H63.3384V66.169H68.3608ZM68.2692 77.0937C69.2345 77.0937 70.0166 76.892 70.6154 76.4888C71.2142 76.0733 71.6541 75.5234 71.9352 74.8391C72.2162 74.1548 72.3567 73.4032 72.3567 72.5845C72.3567 71.778 72.2162 71.0326 71.9352 70.3482C71.6541 69.6639 71.2142 69.114 70.6154 68.6985C70.0166 68.2831 69.2345 68.0753 68.2692 68.0753H65.318V77.0937H68.2692ZM85.0903 77.7352H85.072C84.681 78.114 84.1433 78.4501 83.459 78.7434C82.7746 79.0367 82.0598 79.1833 81.3143 79.1833C80.3123 79.1833 79.4264 78.9756 78.6565 78.5601C77.8989 78.1324 77.3062 77.5519 76.8785 76.8187C76.4508 76.0733 76.2369 75.2301 76.2369 74.2892C76.2369 73.2138 76.463 72.2973 76.9151 71.5397C77.3673 70.7698 77.9661 70.1833 78.7115 69.78C79.4569 69.3645 80.2695 69.1568 81.1494 69.1568C81.9559 69.1568 82.6891 69.3584 83.349 69.7617C84.0089 70.1527 84.5343 70.6965 84.9254 71.393C85.3164 72.0896 85.5119 72.9022 85.5119 73.8309L85.4936 74.6375H78.1249C78.2349 75.5051 78.5893 76.1955 79.1881 76.7088C79.7991 77.2098 80.5689 77.4603 81.4976 77.4603C82.1697 77.4603 82.7135 77.3381 83.129 77.0937C83.5445 76.8371 83.8867 76.5927 84.1555 76.3605L85.0903 77.7352ZM81.1494 70.8981C80.4284 70.8981 79.7991 71.0692 79.2614 71.4114C78.7237 71.7413 78.3693 72.3157 78.1982 73.1344H83.5873V73.0061C83.5506 72.5906 83.4101 72.224 83.1657 71.9063C82.9335 71.5886 82.6402 71.3442 82.2858 71.1731C81.9315 70.9898 81.5526 70.8981 81.1494 70.8981ZM94.3759 75.169V69.3767H96.2639V79H94.3759V77.4603C94.0948 77.9124 93.6793 78.3157 93.1294 78.6701C92.5918 79.0122 91.9441 79.1833 91.1865 79.1833C90.1844 79.1833 89.3718 78.8411 88.7486 78.1568C88.1253 77.4725 87.8137 76.5254 87.8137 75.3157V69.3767H89.7017V74.8024C89.7017 75.2912 89.775 75.7434 89.9217 76.1588C90.0805 76.5743 90.3249 76.9104 90.6549 77.167C90.997 77.4114 91.4309 77.5336 91.9563 77.5336C92.6162 77.5336 93.1844 77.3259 93.661 76.9104C94.1376 76.4949 94.3759 75.9144 94.3759 75.169ZM102.241 79H100.353V71.2097H98.3555V69.3767H100.353V66.9205H102.241V69.3767H104.478V71.2097H102.241V79ZM112.359 71.9063C112.017 71.5641 111.626 71.2831 111.186 71.0631C110.758 70.8431 110.361 70.7332 109.994 70.7332C109.738 70.7332 109.481 70.7637 109.224 70.8248C108.98 70.8859 108.772 71.002 108.601 71.1731C108.43 71.3319 108.345 71.5702 108.345 71.888C108.357 72.3279 108.552 72.6395 108.931 72.8228C109.322 73.0061 109.805 73.1711 110.379 73.3177C110.88 73.4521 111.369 73.6232 111.846 73.8309C112.322 74.0265 112.713 74.3197 113.019 74.7108C113.336 75.0896 113.495 75.6273 113.495 76.3238C113.495 76.9226 113.324 77.4358 112.982 77.8635C112.652 78.2912 112.218 78.6212 111.681 78.8534C111.155 79.0733 110.599 79.1833 110.013 79.1833C109.316 79.1833 108.626 79.0611 107.941 78.8167C107.269 78.5601 106.695 78.1263 106.218 77.5153L107.501 76.4155C107.831 76.7943 108.204 77.0937 108.62 77.3136C109.047 77.5214 109.567 77.6252 110.178 77.6252C110.41 77.6252 110.642 77.5886 110.874 77.5153C111.106 77.4297 111.302 77.3014 111.461 77.1303C111.632 76.947 111.717 76.7026 111.717 76.3971C111.717 76.1039 111.626 75.8778 111.442 75.7189C111.271 75.5478 111.039 75.4134 110.746 75.3157C110.453 75.2057 110.129 75.1079 109.774 75.0224C109.249 74.8757 108.729 74.6986 108.216 74.4908C107.715 74.2709 107.294 73.9654 106.951 73.5743C106.622 73.1711 106.457 72.6273 106.457 71.9429C106.457 71.3686 106.615 70.8798 106.933 70.4765C107.263 70.0611 107.691 69.7433 108.216 69.5234C108.742 69.2912 109.304 69.1751 109.903 69.1751C110.477 69.1751 111.1 69.2973 111.772 69.5417C112.444 69.7861 113 70.1772 113.44 70.7148L112.359 71.9063ZM117.036 74.1792C117.036 74.8146 117.176 75.3829 117.457 75.8839C117.751 76.3727 118.13 76.7637 118.594 77.057C119.07 77.3381 119.578 77.4786 120.115 77.4786C120.726 77.4786 121.258 77.3197 121.71 77.002C122.162 76.6843 122.529 76.3544 122.81 76.0122L123.855 77.2953C123.622 77.6252 123.305 77.9369 122.901 78.2301C122.498 78.5112 122.04 78.7434 121.527 78.9267C121.013 79.0978 120.476 79.1833 119.914 79.1833C119.034 79.1833 118.239 78.9633 117.531 78.5234C116.822 78.0835 116.26 77.4847 115.844 76.7271C115.441 75.9694 115.239 75.1201 115.239 74.1792C115.239 73.226 115.441 72.3768 115.844 71.6313C116.26 70.8737 116.822 70.2749 117.531 69.835C118.239 69.3951 119.034 69.1751 119.914 69.1751C120.806 69.1751 121.6 69.3584 122.297 69.725C122.993 70.0794 123.512 70.5438 123.855 71.1181L122.81 72.4012C122.529 71.9857 122.125 71.6313 121.6 71.3381C121.087 71.0326 120.586 70.8798 120.097 70.8798C119.523 70.8798 119.003 71.0264 118.539 71.3197C118.075 71.6008 117.708 71.9918 117.439 72.4928C117.17 72.9816 117.036 73.5438 117.036 74.1792ZM130.926 69.1751C131.794 69.1751 132.466 69.3523 132.942 69.7067C133.419 70.0611 133.749 70.5376 133.932 71.1364C134.128 71.7352 134.226 72.4012 134.226 73.1344V79H132.338V73.2627C132.338 72.7983 132.277 72.3829 132.154 72.0163C132.032 71.6497 131.824 71.3625 131.531 71.1548C131.238 70.947 130.828 70.8615 130.303 70.8981C129.814 70.8981 129.38 71.002 129.002 71.2097C128.623 71.4175 128.323 71.6924 128.103 72.0346C127.883 72.3768 127.773 72.7556 127.773 73.1711V79H125.885V65.4358H127.773V70.8981C128.067 70.446 128.494 70.0488 129.057 69.7067C129.619 69.3523 130.242 69.1751 130.926 69.1751ZM137.037 79V65.4358H138.925V79H137.037ZM150.654 69.3767V79H148.747V77.5153C148.454 77.9185 148.02 78.2973 147.446 78.6517C146.872 79.0061 146.206 79.1833 145.448 79.1833C144.641 79.1833 143.902 78.9695 143.23 78.5417C142.57 78.114 142.045 77.5214 141.654 76.7637C141.263 76.0061 141.067 75.1385 141.067 74.1609C141.067 73.1833 141.269 72.3218 141.672 71.5763C142.075 70.8187 142.631 70.2321 143.34 69.8167C144.049 69.389 144.855 69.1751 145.76 69.1751C146.432 69.1751 147.018 69.3218 147.519 69.615C148.032 69.9083 148.442 70.2505 148.747 70.6415V69.3767H150.654ZM145.888 77.4419C146.474 77.4419 146.988 77.3014 147.428 77.0204C147.867 76.7271 148.21 76.336 148.454 75.8472C148.698 75.3462 148.821 74.7841 148.821 74.1609C148.821 73.5499 148.698 73 148.454 72.5112C148.21 72.0224 147.867 71.6374 147.428 71.3564C146.988 71.0631 146.474 70.9165 145.888 70.9165C145.326 70.9165 144.825 71.057 144.385 71.3381C143.945 71.6191 143.603 72.004 143.358 72.4928C143.114 72.9816 142.992 73.5377 142.992 74.1609C142.992 74.7841 143.114 75.3462 143.358 75.8472C143.603 76.336 143.945 76.7271 144.385 77.0204C144.825 77.3014 145.326 77.4419 145.888 77.4419ZM158.58 69.1751C159.448 69.1751 160.12 69.3523 160.597 69.7067C161.073 70.0611 161.403 70.5376 161.587 71.1364C161.782 71.7352 161.88 72.4012 161.88 73.1344V79H159.992V73.2627C159.992 72.7983 159.931 72.3829 159.809 72.0163C159.686 71.6497 159.479 71.3625 159.185 71.1548C158.892 70.947 158.483 70.8615 157.957 70.8981C157.468 70.8981 157.035 71.002 156.656 71.2097C156.277 71.4175 155.978 71.6924 155.758 72.0346C155.538 72.3768 155.428 72.7556 155.428 73.1711V79H153.54V69.3767H155.428V70.8981C155.721 70.446 156.149 70.0488 156.711 69.7067C157.273 69.3523 157.896 69.1751 158.58 69.1751ZM173.709 65.4358V79H171.821V77.6436C171.54 78.0224 171.125 78.3768 170.575 78.7067C170.025 79.0244 169.402 79.1833 168.705 79.1833C167.838 79.1833 167.056 78.9695 166.359 78.5417C165.663 78.114 165.113 77.5214 164.709 76.7637C164.306 76.0061 164.105 75.1446 164.105 74.1792C164.105 73.2016 164.306 72.3401 164.709 71.5947C165.113 70.837 165.656 70.2444 166.341 69.8167C167.025 69.389 167.795 69.1751 168.65 69.1751C169.335 69.1751 169.952 69.3156 170.502 69.5967C171.064 69.8778 171.504 70.2077 171.821 70.5865V65.4358H173.709ZM168.962 77.5519C169.549 77.5519 170.062 77.4053 170.502 77.112C170.942 76.8187 171.284 76.4155 171.528 75.9022C171.773 75.389 171.895 74.8146 171.895 74.1792C171.895 73.5315 171.773 72.9572 171.528 72.4562C171.284 71.9429 170.942 71.5397 170.502 71.2464C170.062 70.9531 169.549 70.8065 168.962 70.8065C168.388 70.8065 167.88 70.9531 167.441 71.2464C167.001 71.5397 166.652 71.9429 166.396 72.4562C166.151 72.9572 166.029 73.5315 166.029 74.1792C166.029 74.8146 166.151 75.389 166.396 75.9022C166.652 76.4155 167.001 76.8187 167.441 77.112C167.88 77.4053 168.388 77.5519 168.962 77.5519ZM186.95 69.1751C187.805 69.1751 188.569 69.389 189.241 69.8167C189.925 70.2321 190.463 70.8187 190.854 71.5763C191.245 72.3218 191.441 73.1833 191.441 74.1609C191.441 75.1385 191.245 76.0061 190.854 76.7637C190.463 77.5214 189.932 78.114 189.259 78.5417C188.587 78.9695 187.836 79.1833 187.005 79.1833C186.321 79.1833 185.697 79.0367 185.135 78.7434C184.585 78.4379 184.152 78.0957 183.834 77.7169V78.945H181.946V65.4358H183.834V70.7698C184.115 70.3666 184.536 70 185.099 69.67C185.661 69.3401 186.278 69.1751 186.95 69.1751ZM186.693 70.8981C186.119 70.8981 185.606 71.0387 185.154 71.3197C184.714 71.6008 184.365 71.9918 184.109 72.4928C183.864 72.9816 183.742 73.5377 183.742 74.1609C183.742 74.7841 183.864 75.3462 184.109 75.8472C184.365 76.336 184.714 76.7271 185.154 77.0204C185.606 77.3136 186.119 77.4603 186.693 77.4603C187.268 77.4603 187.775 77.3136 188.215 77.0204C188.655 76.7271 188.997 76.336 189.241 75.8472C189.498 75.3462 189.626 74.7841 189.626 74.1609C189.626 73.5377 189.498 72.9816 189.241 72.4928C188.997 71.9918 188.655 71.6008 188.215 71.3197C187.775 71.0387 187.268 70.8981 186.693 70.8981ZM202.008 77.7352H201.99C201.599 78.114 201.061 78.4501 200.377 78.7434C199.693 79.0367 198.978 79.1833 198.232 79.1833C197.23 79.1833 196.344 78.9756 195.575 78.5601C194.817 78.1324 194.224 77.5519 193.797 76.8187C193.369 76.0733 193.155 75.2301 193.155 74.2892C193.155 73.2138 193.381 72.2973 193.833 71.5397C194.285 70.7698 194.884 70.1833 195.63 69.78C196.375 69.3645 197.188 69.1568 198.067 69.1568C198.874 69.1568 199.607 69.3584 200.267 69.7617C200.927 70.1527 201.452 70.6965 201.843 71.393C202.234 72.0896 202.43 72.9022 202.43 73.8309L202.412 74.6375H195.043C195.153 75.5051 195.507 76.1955 196.106 76.7088C196.717 77.2098 197.487 77.4603 198.416 77.4603C199.088 77.4603 199.632 77.3381 200.047 77.0937C200.463 76.8371 200.805 76.5927 201.074 76.3605L202.008 77.7352ZM198.067 70.8981C197.346 70.8981 196.717 71.0692 196.179 71.4114C195.642 71.7413 195.287 72.3157 195.116 73.1344H200.505V73.0061C200.469 72.5906 200.328 72.224 200.084 71.9063C199.852 71.5886 199.558 71.3442 199.204 71.1731C198.85 70.9898 198.471 70.8981 198.067 70.8981ZM207.811 79H205.923V71.2097H203.925V69.3767H205.923V66.9205H207.811V69.3767H210.048V71.2097H207.811V79ZM217.406 71.4114C217.283 71.3503 217.131 71.3014 216.947 71.2647C216.776 71.2159 216.593 71.1914 216.398 71.1914C216.007 71.1914 215.622 71.2953 215.243 71.503C214.864 71.6985 214.546 71.9857 214.29 72.3645C214.045 72.7311 213.923 73.1711 213.923 73.6843V79H212.017V69.3767H213.923V71.1914C214.192 70.6049 214.595 70.1222 215.133 69.7434C215.683 69.3645 216.257 69.1751 216.856 69.1751C217.308 69.1751 217.656 69.2362 217.901 69.3584L217.406 71.4114ZM228.468 74.1792C228.468 75.1568 228.248 76.0244 227.808 76.7821C227.38 77.5275 226.794 78.114 226.048 78.5417C225.315 78.9695 224.49 79.1833 223.574 79.1833C222.657 79.1833 221.826 78.9695 221.081 78.5417C220.335 78.114 219.743 77.5275 219.303 76.7821C218.875 76.0244 218.661 75.1568 218.661 74.1792C218.661 73.2016 218.875 72.3401 219.303 71.5947C219.743 70.837 220.335 70.2444 221.081 69.8167C221.826 69.389 222.657 69.1751 223.574 69.1751C224.49 69.1751 225.315 69.389 226.048 69.8167C226.794 70.2444 227.38 70.837 227.808 71.5947C228.248 72.3401 228.468 73.2016 228.468 74.1792ZM226.543 74.1792C226.555 73.5315 226.427 72.9633 226.158 72.4745C225.902 71.9735 225.547 71.5886 225.095 71.3197C224.643 71.0387 224.136 70.8981 223.574 70.8981C223.012 70.8981 222.498 71.0387 222.034 71.3197C221.582 71.5886 221.221 71.9735 220.953 72.4745C220.696 72.9633 220.574 73.5315 220.586 74.1792C220.574 74.8146 220.696 75.3829 220.953 75.8839C221.221 76.3727 221.582 76.7576 222.034 77.0387C222.498 77.3197 223.012 77.4603 223.574 77.4603C224.136 77.4603 224.643 77.3197 225.095 77.0387C225.547 76.7576 225.902 76.3727 226.158 75.8839C226.427 75.3829 226.555 74.8146 226.543 74.1792ZM235.641 71.2831H233.368V79H231.462V71.2831H229.922V69.5417H231.462V68.2953C231.462 67.4643 231.725 66.7861 232.25 66.2606C232.788 65.723 233.478 65.4541 234.321 65.4541C234.81 65.4541 235.213 65.5458 235.531 65.7291C235.861 65.9124 236.099 66.0896 236.246 66.2606L235.604 67.7087C235.482 67.5865 235.323 67.4765 235.128 67.3788C234.932 67.2688 234.737 67.2138 234.541 67.2138C234.101 67.2138 233.796 67.3177 233.625 67.5254C233.454 67.7332 233.368 67.9898 233.368 68.2953V69.5417H235.641V71.2831ZM242.478 71.2831H240.205V79H238.299V71.2831H236.759V69.5417H238.299V68.2953C238.299 67.4643 238.562 66.7861 239.087 66.2606C239.625 65.723 240.315 65.4541 241.158 65.4541C241.647 65.4541 242.051 65.5458 242.368 65.7291C242.698 65.9124 242.936 66.0896 243.083 66.2606L242.442 67.7087C242.319 67.5865 242.16 67.4765 241.965 67.3788C241.769 67.2688 241.574 67.2138 241.378 67.2138C240.938 67.2138 240.633 67.3177 240.462 67.5254C240.291 67.7332 240.205 67.9898 240.205 68.2953V69.5417H242.478V71.2831ZM252.61 77.7352H252.591C252.2 78.114 251.663 78.4501 250.978 78.7434C250.294 79.0367 249.579 79.1833 248.834 79.1833C247.832 79.1833 246.946 78.9756 246.176 78.5601C245.418 78.1324 244.826 77.5519 244.398 76.8187C243.97 76.0733 243.756 75.2301 243.756 74.2892C243.756 73.2138 243.982 72.2973 244.435 71.5397C244.887 70.7698 245.486 70.1833 246.231 69.78C246.976 69.3645 247.789 69.1568 248.669 69.1568C249.475 69.1568 250.209 69.3584 250.868 69.7617C251.528 70.1527 252.054 70.6965 252.445 71.393C252.836 72.0896 253.031 72.9022 253.031 73.8309L253.013 74.6375H245.644C245.754 75.5051 246.109 76.1955 246.708 76.7088C247.319 77.2098 248.088 77.4603 249.017 77.4603C249.689 77.4603 250.233 77.3381 250.648 77.0937C251.064 76.8371 251.406 76.5927 251.675 76.3605L252.61 77.7352ZM248.669 70.8981C247.948 70.8981 247.319 71.0692 246.781 71.4114C246.243 71.7413 245.889 72.3157 245.718 73.1344H251.107V73.0061C251.07 72.5906 250.93 72.224 250.685 71.9063C250.453 71.5886 250.16 71.3442 249.805 71.1731C249.451 70.9898 249.072 70.8981 248.669 70.8981ZM260.374 69.1751C261.242 69.1751 261.914 69.3523 262.39 69.7067C262.867 70.0611 263.197 70.5376 263.38 71.1364C263.576 71.7352 263.673 72.4012 263.673 73.1344V79H261.785V73.2627C261.785 72.7983 261.724 72.3829 261.602 72.0163C261.48 71.6497 261.272 71.3625 260.979 71.1548C260.686 70.947 260.276 70.8615 259.751 70.8981C259.262 70.8981 258.828 71.002 258.449 71.2097C258.07 71.4175 257.771 71.6924 257.551 72.0346C257.331 72.3768 257.221 72.7556 257.221 73.1711V79H255.333V69.3767H257.221V70.8981C257.514 70.446 257.942 70.0488 258.504 69.7067C259.066 69.3523 259.69 69.1751 260.374 69.1751ZM277.426 71.9063C277.084 71.5641 276.693 71.2831 276.253 71.0631C275.825 70.8431 275.428 70.7332 275.061 70.7332C274.805 70.7332 274.548 70.7637 274.292 70.8248C274.047 70.8859 273.839 71.002 273.668 71.1731C273.497 71.3319 273.412 71.5702 273.412 71.888C273.424 72.3279 273.619 72.6395 273.998 72.8228C274.389 73.0061 274.872 73.1711 275.446 73.3177C275.947 73.4521 276.436 73.6232 276.913 73.8309C277.389 74.0265 277.78 74.3197 278.086 74.7108C278.404 75.0896 278.562 75.6273 278.562 76.3238C278.562 76.9226 278.391 77.4358 278.049 77.8635C277.719 78.2912 277.285 78.6212 276.748 78.8534C276.222 79.0733 275.666 79.1833 275.08 79.1833C274.383 79.1833 273.693 79.0611 273.008 78.8167C272.336 78.5601 271.762 78.1263 271.285 77.5153L272.568 76.4155C272.898 76.7943 273.271 77.0937 273.687 77.3136C274.114 77.5214 274.634 77.6252 275.245 77.6252C275.477 77.6252 275.709 77.5886 275.941 77.5153C276.173 77.4297 276.369 77.3014 276.528 77.1303C276.699 76.947 276.784 76.7026 276.784 76.3971C276.784 76.1039 276.693 75.8778 276.509 75.7189C276.338 75.5478 276.106 75.4134 275.813 75.3157C275.52 75.2057 275.196 75.1079 274.841 75.0224C274.316 74.8757 273.797 74.6986 273.283 74.4908C272.782 74.2709 272.361 73.9654 272.019 73.5743C271.689 73.1711 271.524 72.6273 271.524 71.9429C271.524 71.3686 271.683 70.8798 272 70.4765C272.33 70.0611 272.758 69.7433 273.283 69.5234C273.809 69.2912 274.371 69.1751 274.97 69.1751C275.544 69.1751 276.167 69.2973 276.839 69.5417C277.511 69.7861 278.067 70.1772 278.507 70.7148L277.426 71.9063ZM282.158 67.2871C281.73 67.2871 281.412 67.1771 281.205 66.9572C280.997 66.7372 280.893 66.4501 280.893 66.0957C280.893 65.7902 280.997 65.5152 281.205 65.2708C281.412 65.0264 281.73 64.9042 282.158 64.9042C282.586 64.9042 282.903 65.0142 283.111 65.2342C283.319 65.4541 283.423 65.7413 283.423 66.0957C283.423 66.4012 283.319 66.6761 283.111 66.9205C282.903 67.1649 282.586 67.2871 282.158 67.2871ZM283.129 79H281.241V69.3767H283.129V79ZM291.285 69.1751C292.153 69.1751 292.825 69.3523 293.302 69.7067C293.778 70.0611 294.108 70.5376 294.292 71.1364C294.487 71.7352 294.585 72.4012 294.585 73.1344V79H292.697V73.2627C292.697 72.7983 292.636 72.3829 292.514 72.0163C292.391 71.6497 292.184 71.3625 291.89 71.1548C291.597 70.947 291.188 70.8615 290.662 70.8981C290.173 70.8981 289.74 71.002 289.361 71.2097C288.982 71.4175 288.683 71.6924 288.463 72.0346C288.243 72.3768 288.133 72.7556 288.133 73.1711V79H286.245V69.3767H288.133V70.8981C288.426 70.446 288.854 70.0488 289.416 69.7067C289.978 69.3523 290.601 69.1751 291.285 69.1751ZM306.414 65.4358V79H304.526V77.6436C304.245 78.0224 303.83 78.3768 303.28 78.7067C302.73 79.0244 302.107 79.1833 301.41 79.1833C300.543 79.1833 299.761 78.9695 299.064 78.5417C298.368 78.114 297.818 77.5214 297.414 76.7637C297.011 76.0061 296.81 75.1446 296.81 74.1792C296.81 73.2016 297.011 72.3401 297.414 71.5947C297.818 70.837 298.361 70.2444 299.046 69.8167C299.73 69.389 300.5 69.1751 301.355 69.1751C302.04 69.1751 302.657 69.3156 303.207 69.5967C303.769 69.8778 304.209 70.2077 304.526 70.5865V65.4358H306.414ZM301.667 77.5519C302.254 77.5519 302.767 77.4053 303.207 77.112C303.647 76.8187 303.989 76.4155 304.233 75.9022C304.478 75.389 304.6 74.8146 304.6 74.1792C304.6 73.5315 304.478 72.9572 304.233 72.4562C303.989 71.9429 303.647 71.5397 303.207 71.2464C302.767 70.9531 302.254 70.8065 301.667 70.8065C301.093 70.8065 300.586 70.9531 300.146 71.2464C299.706 71.5397 299.357 71.9429 299.101 72.4562C298.856 72.9572 298.734 73.5315 298.734 74.1792C298.734 74.8146 298.856 75.389 299.101 75.9022C299.357 76.4155 299.706 76.8187 300.146 77.112C300.586 77.4053 301.093 77.5519 301.667 77.5519ZM313.661 81.4196L321.213 66.169H323.028L315.494 81.4196H313.661ZM343.432 69.3767L340.188 79H338.887L336.43 73.4093L334.139 79H332.856L329.575 69.3767L331.481 69.3584L333.644 75.9939L335.954 70.8981H337.09L339.382 75.9206L341.526 69.3767H343.432ZM354.097 69.3767V79H352.19V77.5153C351.897 77.9185 351.463 78.2973 350.889 78.6517C350.315 79.0061 349.649 79.1833 348.891 79.1833C348.085 79.1833 347.345 78.9695 346.673 78.5417C346.013 78.114 345.488 77.5214 345.097 76.7637C344.706 76.0061 344.51 75.1385 344.51 74.1609C344.51 73.1833 344.712 72.3218 345.115 71.5763C345.518 70.8187 346.074 70.2321 346.783 69.8167C347.492 69.389 348.298 69.1751 349.203 69.1751C349.875 69.1751 350.461 69.3218 350.962 69.615C351.476 69.9083 351.885 70.2505 352.19 70.6415V69.3767H354.097ZM349.331 77.4419C349.918 77.4419 350.431 77.3014 350.871 77.0204C351.311 76.7271 351.653 76.336 351.897 75.8472C352.142 75.3462 352.264 74.7841 352.264 74.1609C352.264 73.5499 352.142 73 351.897 72.5112C351.653 72.0224 351.311 71.6374 350.871 71.3564C350.431 71.0631 349.918 70.9165 349.331 70.9165C348.769 70.9165 348.268 71.057 347.828 71.3381C347.388 71.6191 347.046 72.004 346.801 72.4928C346.557 72.9816 346.435 73.5377 346.435 74.1609C346.435 74.7841 346.557 75.3462 346.801 75.8472C347.046 76.336 347.388 76.7271 347.828 77.0204C348.268 77.3014 348.769 77.4419 349.331 77.4419ZM362.372 71.4114C362.25 71.3503 362.097 71.3014 361.914 71.2647C361.743 71.2159 361.559 71.1914 361.364 71.1914C360.973 71.1914 360.588 71.2953 360.209 71.503C359.83 71.6985 359.512 71.9857 359.256 72.3645C359.011 72.7311 358.889 73.1711 358.889 73.6843V79H356.983V69.3767H358.889V71.1914C359.158 70.6049 359.561 70.1222 360.099 69.7434C360.649 69.3645 361.223 69.1751 361.822 69.1751C362.274 69.1751 362.622 69.2362 362.867 69.3584L362.372 71.4114ZM372.481 77.7352H372.463C372.071 78.114 371.534 78.4501 370.849 78.7434C370.165 79.0367 369.45 79.1833 368.705 79.1833C367.703 79.1833 366.817 78.9756 366.047 78.5601C365.289 78.1324 364.697 77.5519 364.269 76.8187C363.841 76.0733 363.627 75.2301 363.627 74.2892C363.627 73.2138 363.854 72.2973 364.306 71.5397C364.758 70.7698 365.357 70.1833 366.102 69.78C366.847 69.3645 367.66 69.1568 368.54 69.1568C369.346 69.1568 370.08 69.3584 370.739 69.7617C371.399 70.1527 371.925 70.6965 372.316 71.393C372.707 72.0896 372.902 72.9022 372.902 73.8309L372.884 74.6375H365.515C365.625 75.5051 365.98 76.1955 366.579 76.7088C367.19 77.2098 367.959 77.4603 368.888 77.4603C369.56 77.4603 370.104 77.3381 370.52 77.0937C370.935 76.8371 371.277 76.5927 371.546 76.3605L372.481 77.7352ZM368.54 70.8981C367.819 70.8981 367.19 71.0692 366.652 71.4114C366.114 71.7413 365.76 72.3157 365.589 73.1344H370.978V73.0061C370.941 72.5906 370.801 72.224 370.556 71.9063C370.324 71.5886 370.031 71.3442 369.676 71.1731C369.322 70.9898 368.943 70.8981 368.54 70.8981ZM380.245 69.1751C381.113 69.1751 381.785 69.3523 382.261 69.7067C382.738 70.0611 383.068 70.5376 383.251 71.1364C383.447 71.7352 383.544 72.4012 383.544 73.1344V79H381.656V73.2627C381.656 72.7983 381.595 72.3829 381.473 72.0163C381.351 71.6497 381.143 71.3625 380.85 71.1548C380.557 70.947 380.147 70.8615 379.622 70.8981C379.133 70.8981 378.699 71.002 378.32 71.2097C377.942 71.4175 377.642 71.6924 377.422 72.0346C377.202 72.3768 377.092 72.7556 377.092 73.1711V79H375.204V69.3767H377.092V70.8981C377.386 70.446 377.813 70.0488 378.375 69.7067C378.937 69.3523 379.561 69.1751 380.245 69.1751Z" fill="#607D8B"/>
<path d="M454.322 54H448.978V52.336H450.754V44.896L449.138 45.744L448.674 44.24L451.666 42.64H452.498V52.336H454.322V54ZM457.386 50.944C457.546 51.1787 457.738 51.4293 457.962 51.696C458.197 51.9627 458.469 52.1867 458.778 52.368C459.098 52.5493 459.461 52.64 459.866 52.64C460.186 52.64 460.506 52.56 460.826 52.4C461.146 52.2293 461.413 51.984 461.626 51.664C461.85 51.3333 461.962 50.9333 461.962 50.464C461.962 49.984 461.871 49.6 461.69 49.312C461.519 49.024 461.29 48.816 461.002 48.688C460.714 48.56 460.399 48.496 460.058 48.496C459.727 48.496 459.391 48.5493 459.05 48.656C458.719 48.752 458.41 48.8587 458.122 48.976L457.642 47.712L460.65 44.4H456.666V42.8H463.082L463.402 43.44L460.266 46.912C460.885 46.912 461.445 47.0667 461.946 47.376C462.458 47.6747 462.863 48.0853 463.162 48.608C463.471 49.1307 463.626 49.7173 463.626 50.368C463.626 51.136 463.439 51.808 463.066 52.384C462.703 52.9493 462.223 53.3867 461.626 53.696C461.039 54.0053 460.41 54.16 459.738 54.16C459.109 54.16 458.565 54.0587 458.106 53.856C457.658 53.6427 457.269 53.3547 456.938 52.992C456.607 52.6293 456.309 52.2293 456.042 51.792L457.386 50.944ZM472.819 42.8L476.483 48.768L480.211 42.8H481.811V54H480.083V49.408C480.083 48.736 480.094 48.1013 480.115 47.504C480.147 46.896 480.195 46.2933 480.259 45.696L476.963 50.784H475.907L472.691 45.712C472.755 46.3093 472.798 46.9067 472.819 47.504C472.84 48.1013 472.851 48.736 472.851 49.408V54H471.123V42.8H472.819ZM486.079 43.776C485.706 43.776 485.428 43.68 485.247 43.488C485.066 43.296 484.975 43.0453 484.975 42.736C484.975 42.4693 485.066 42.2293 485.247 42.016C485.428 41.8027 485.706 41.696 486.079 41.696C486.452 41.696 486.73 41.792 486.911 41.984C487.092 42.176 487.183 42.4267 487.183 42.736C487.183 43.0027 487.092 43.2427 486.911 43.456C486.73 43.6693 486.452 43.776 486.079 43.776ZM486.927 54H485.279V45.6H486.927V54ZM497.916 49.792C497.916 50.6453 497.724 51.4027 497.34 52.064C496.967 52.7147 496.455 53.2267 495.804 53.6C495.164 53.9733 494.444 54.16 493.644 54.16C492.844 54.16 492.119 53.9733 491.468 53.6C490.818 53.2267 490.3 52.7147 489.916 52.064C489.543 51.4027 489.356 50.6453 489.356 49.792C489.356 48.9387 489.543 48.1867 489.916 47.536C490.3 46.8747 490.818 46.3573 491.468 45.984C492.119 45.6107 492.844 45.424 493.644 45.424C494.444 45.424 495.164 45.6107 495.804 45.984C496.455 46.3573 496.967 46.8747 497.34 47.536C497.724 48.1867 497.916 48.9387 497.916 49.792ZM496.236 49.792C496.247 49.2267 496.135 48.7307 495.9 48.304C495.676 47.8667 495.367 47.5307 494.972 47.296C494.578 47.0507 494.135 46.928 493.644 46.928C493.154 46.928 492.706 47.0507 492.3 47.296C491.906 47.5307 491.591 47.8667 491.356 48.304C491.132 48.7307 491.026 49.2267 491.036 49.792C491.026 50.3467 491.132 50.8427 491.356 51.28C491.591 51.7067 491.906 52.0427 492.3 52.288C492.706 52.5333 493.154 52.656 493.644 52.656C494.135 52.656 494.578 52.5333 494.972 52.288C495.367 52.0427 495.676 51.7067 495.9 51.28C496.135 50.8427 496.247 50.3467 496.236 49.792Z" fill="#94A3B3"/>
<g clip-path="url(#clip0)">
<path d="M104.889 351.264C85.4449 351.264 94.2364 302.044 67.6058 302.044C42.3067 302.044 50.2959 370.681 30.323 370.681C5.35675 370.681 17.6734 345.394 -6.9599 345.394C-31.2603 346.297 -19.9423 381.519 -44.2427 381.519V405H515V139.481C489.701 139.481 503.016 176.961 477.717 177.413C452.418 177.864 467.822 152.125 440.434 152.125C417.133 152.125 428.118 193.669 403.151 193.669C378.185 193.669 387.173 240.631 365.869 240.631C342.314 240.631 356.862 177.413 328.586 177.413C300.309 177.413 317.024 254.178 291.303 254.178C264.339 254.178 278.986 213.538 254.02 213.538C226.724 213.538 245.014 257.339 217.07 257.339C185.877 257.339 205.086 309.269 179.454 309.269C153.822 309.269 166.226 279.917 142.172 279.917C116.872 279.917 129.672 351.264 104.889 351.264Z" fill="#FFCF03"/>
</g>
<g clip-path="url(#clip1)">
<g filter="url(#filter2_d)">
<path d="M515 139.481C489.701 139.481 503.016 176.961 477.717 177.413C452.418 177.864 467.822 152.125 440.434 152.125C417.133 152.125 428.118 193.669 403.151 193.669C378.185 193.669 387.173 240.631 365.869 240.631C342.314 240.631 356.862 177.413 328.586 177.413C300.309 177.413 317.024 254.178 291.303 254.178C264.339 254.178 278.986 213.538 254.02 213.538C226.724 213.538 245.014 257.339 217.07 257.339C185.877 257.339 205.086 309.269 179.454 309.269C153.822 309.269 166.226 279.917 142.172 279.917C116.872 279.917 129.672 351.264 104.889 351.264C85.4449 351.264 94.2364 302.044 67.6058 302.044C42.3067 302.044 50.2959 370.681 30.323 370.681C5.35677 370.681 17.6734 345.394 -6.95989 345.394C-31.2603 346.297 -19.9423 381.519 -44.2427 381.519" stroke="#A11A9A" stroke-width="3" stroke-linecap="round" stroke-linejoin="round"/>
</g>
</g>
<rect width="8" height="8" rx="4" transform="matrix(-1 0 0 1 510.973 137.005)" fill="#A11A9A"/>
<rect width="5" height="5" rx="2.5" transform="matrix(-1 0 0 1 509.642 138.337)" fill="white"/>
</g>
<rect x="507" y="126" width="8" height="8" rx="1" transform="rotate(45 507 126)" fill="#263238"/>
<rect x="479" y="100" width="55" height="32" rx="3" fill="#263238"/>
<path d="M487.801 122H482.457V120.336H484.233V112.896L482.617 113.744L482.153 112.24L485.145 110.64H485.977V120.336H487.801V122ZM490.825 118.944C490.985 119.179 491.177 119.429 491.401 119.696C491.636 119.963 491.908 120.187 492.217 120.368C492.537 120.549 492.9 120.64 493.305 120.64C493.625 120.64 493.945 120.56 494.265 120.4C494.585 120.229 494.852 119.984 495.065 119.664C495.289 119.333 495.401 118.933 495.401 118.464C495.401 117.984 495.31 117.6 495.129 117.312C494.958 117.024 494.729 116.816 494.441 116.688C494.153 116.56 493.838 116.496 493.497 116.496C493.166 116.496 492.83 116.549 492.489 116.656C492.158 116.752 491.849 116.859 491.561 116.976L491.081 115.712L494.089 112.4H490.105V110.8H496.521L496.841 111.44L493.705 114.912C494.324 114.912 494.884 115.067 495.385 115.376C495.897 115.675 496.302 116.085 496.601 116.608C496.91 117.131 497.065 117.717 497.065 118.368C497.065 119.136 496.878 119.808 496.505 120.384C496.142 120.949 495.662 121.387 495.065 121.696C494.478 122.005 493.849 122.16 493.177 122.16C492.548 122.16 492.004 122.059 491.545 121.856C491.097 121.643 490.708 121.355 490.377 120.992C490.046 120.629 489.748 120.229 489.481 119.792L490.825 118.944ZM506.178 110.8L509.842 116.768L513.57 110.8H515.17V122H513.442V117.408C513.442 116.736 513.453 116.101 513.474 115.504C513.506 114.896 513.554 114.293 513.618 113.696L510.322 118.784H509.266L506.05 113.712C506.114 114.309 506.157 114.907 506.178 115.504C506.199 116.101 506.21 116.736 506.21 117.408V122H504.482V110.8H506.178ZM519.398 111.776C519.025 111.776 518.748 111.68 518.566 111.488C518.385 111.296 518.294 111.045 518.294 110.736C518.294 110.469 518.385 110.229 518.566 110.016C518.748 109.803 519.025 109.696 519.398 109.696C519.772 109.696 520.049 109.792 520.23 109.984C520.412 110.176 520.502 110.427 520.502 110.736C520.502 111.003 520.412 111.243 520.23 111.456C520.049 111.669 519.772 111.776 519.398 111.776ZM520.246 122H518.598V113.6H520.246V122ZM531.195 117.792C531.195 118.645 531.003 119.403 530.619 120.064C530.246 120.715 529.734 121.227 529.083 121.6C528.443 121.973 527.723 122.16 526.923 122.16C526.123 122.16 525.398 121.973 524.747 121.6C524.097 121.227 523.579 120.715 523.195 120.064C522.822 119.403 522.635 118.645 522.635 117.792C522.635 116.939 522.822 116.187 523.195 115.536C523.579 114.875 524.097 114.357 524.747 113.984C525.398 113.611 526.123 113.424 526.923 113.424C527.723 113.424 528.443 113.611 529.083 113.984C529.734 114.357 530.246 114.875 530.619 115.536C531.003 116.187 531.195 116.939 531.195 117.792ZM529.515 117.792C529.526 117.227 529.414 116.731 529.179 116.304C528.955 115.867 528.646 115.531 528.251 115.296C527.857 115.051 527.414 114.928 526.923 114.928C526.433 114.928 525.985 115.051 525.579 115.296C525.185 115.531 524.87 115.867 524.635 116.304C524.411 116.731 524.305 117.227 524.315 117.792C524.305 118.347 524.411 118.843 524.635 119.28C524.87 119.707 525.185 120.043 525.579 120.288C525.985 120.533 526.433 120.656 526.923 120.656C527.414 120.656 527.857 120.533 528.251 120.288C528.646 120.043 528.955 119.707 529.179 119.28C529.414 118.843 529.526 118.347 529.515 117.792Z" fill="white"/>
</g>
<defs>
<filter id="filter0_d" x="0" y="0" width="554" height="425" filterUnits="userSpaceOnUse" color-interpolation-filters="sRGB">
<feFlood flood-opacity="0" result="BackgroundImageFix"/>
<feColorMatrix in="SourceAlpha" type="matrix" values="0 0 0 0 0 0 0 0 0 0 0 0 0 0 0 0 0 0 127 0" result="hardAlpha"/>
<feOffset/>
<feGaussianBlur stdDeviation="10"/>
<feComposite in2="hardAlpha" operator="out"/>
<feColorMatrix type="matrix" values="0 0 0 0 0 0 0 0 0 0 0 0 0 0 0 0 0 0 0.15 0"/>
<feBlend mode="normal" in2="BackgroundImageFix" result="effect1_dropShadow"/>
<feBlend mode="normal" in="SourceGraphic" in2="effect1_dropShadow" result="shape"/>
</filter>
<filter id="filter1_d" x="16" y="16" width="503" height="393" filterUnits="userSpaceOnUse" color-interpolation-filters="sRGB">
<feFlood flood-opacity="0" result="BackgroundImageFix"/>
<feColorMatrix in="SourceAlpha" type="matrix" values="0 0 0 0 0 0 0 0 0 0 0 0 0 0 0 0 0 0 127 0" result="hardAlpha"/>
<feOffset/>
<feGaussianBlur stdDeviation="2"/>
<feComposite in2="hardAlpha" operator="out"/>
<feColorMatrix type="matrix" values="0 0 0 0 0 0 0 0 0 0 0 0 0 0 0 0 0 0 0.25 0"/>
<feBlend mode="normal" in2="BackgroundImageFix" result="effect1_dropShadow"/>
<feBlend mode="normal" in="SourceGraphic" in2="effect1_dropShadow" result="shape"/>
</filter>
<filter id="filter2_d" x="-53.7427" y="133.981" width="570.243" height="253.037" filterUnits="userSpaceOnUse" color-interpolation-filters="sRGB">
<feFlood flood-opacity="0" result="BackgroundImageFix"/>
<feColorMatrix in="SourceAlpha" type="matrix" values="0 0 0 0 0 0 0 0 0 0 0 0 0 0 0 0 0 0 127 0" result="hardAlpha"/>
<feOffset dx="-4"/>
<feGaussianBlur stdDeviation="2"/>
<feComposite in2="hardAlpha" operator="out"/>
<feColorMatrix type="matrix" values="0 0 0 0 0 0 0 0 0 0 0 0 0 0 0 0 0 0 0.25 0"/>
<feBlend mode="normal" in2="BackgroundImageFix" result="effect1_dropShadow"/>
<feBlend mode="normal" in="SourceGraphic" in2="effect1_dropShadow" result="shape"/>
</filter>
<clipPath id="clip0">
<rect width="495" height="263.712" fill="white" transform="matrix(-1 0 0 1 515 141.288)"/>
</clipPath>
<clipPath id="clip1">
<rect width="495" height="289" fill="white" transform="matrix(-1 0 0 1 515 116)"/>
</clipPath>
</defs>
</svg>
