<svg width="83" height="82" viewBox="0 0 83 82" fill="none" xmlns="http://www.w3.org/2000/svg">
<g clip-path="url(#clip0)">
<path fill-rule="evenodd" clip-rule="evenodd" d="M78.1673 81.9678C80.6653 81.9678 82.6908 79.942 82.6908 77.4439V4.52382C82.6908 2.02482 80.665 0 78.1673 0H5.24745C2.74845 0 0.723633 2.02512 0.723633 4.52382V77.4436C0.723633 79.942 2.74845 81.9674 5.24745 81.9674H78.1673V81.9678ZM57.2797 81.9678V50.2255H67.9342L69.5293 37.8548H57.2794V29.9567C57.2794 26.3751 58.2738 23.9345 63.41 23.9345L69.9605 23.9314V12.8672C68.8276 12.7168 64.9388 12.3799 60.4153 12.3799C50.9706 12.3799 44.5046 18.1447 44.5046 28.7319V37.8548H33.8228V50.2255H44.5046V81.9674H57.2797V81.9678Z" fill="#485A96"/>
</g>
<defs>
<clipPath id="clip0">
<rect width="82" height="82" fill="white" transform="translate(0.723633)"/>
</clipPath>
</defs>
</svg>
