<?xml version="1.0" encoding="UTF-8"?> <svg xmlns="http://www.w3.org/2000/svg" xmlns:xlink="http://www.w3.org/1999/xlink" width="2736.001" height="785" viewBox="0 0 2736.001 785"><defs><style> .cls-1 { fill: #fff; } .cls-2 { fill: #5c3e8d; } .cls-3 { fill: #9c7fe5; } .cls-4 { fill: #d5adf7; } .cls-5 { filter: url(#Rectangle_234); } </style><filter id="Rectangle_234" x="0" y="0" width="779.076" height="785"><feOffset dx="10" dy="16"></feOffset><feGaussianBlur stdDeviation="3" result="blur"></feGaussianBlur><feFlood flood-color="#0f0e0e" flood-opacity="0.078"></feFlood><feComposite operator="in" in2="blur"></feComposite><feComposite in="SourceGraphic"></feComposite></filter></defs><g id="Group_498" data-name="Group 498" transform="translate(8735 -2923)"><g class="cls-5" transform="matrix(1, 0, 0, 1, -8735, 2923)"><rect id="Rectangle_234-2" data-name="Rectangle 234" class="cls-1" width="760.077" height="760" rx="57"></rect></g><g id="Group_74" data-name="Group 74" transform="translate(-8529.538 3085.435)"><path id="Path_76" data-name="Path 76" class="cls-2" d="M903.375,726.6,757.4,872.514H903.375Z" transform="translate(-757.4 -726.6)"></path><path id="Path_77" data-name="Path 77" class="cls-3" d="M757.4,808v287.346a4.06,4.06,0,0,0,4.13,4.123H899.066a4.06,4.06,0,0,0,4.13-4.123V808Z" transform="translate(-757.4 -662.086)"></path><path id="Path_78" data-name="Path 78" class="cls-4" d="M1039.079,867.595V731.54a4.824,4.824,0,0,0-4.848-4.84H838.7V872.435h195.352A4.867,4.867,0,0,0,1039.079,867.595Z" transform="translate(-692.725 -726.521)"></path><ellipse id="Ellipse_20" data-name="Ellipse 20" class="cls-2" cx="73.077" cy="72.957" rx="73.077" ry="72.957" transform="translate(180.269 189.473)"></ellipse></g><path id="Path_79" data-name="Path 79" class="cls-2" d="M1018.053,806.33q0-4.561,2.279-6.842a8.493,8.493,0,0,1,5.823-2.787H1225.9c3.291,0,5.569,1.014,7.089,2.787a11.094,11.094,0,0,1,2.279,7.349v51.442a10.946,10.946,0,0,1-2.532,6.842c-1.772,2.281-4.05,3.294-7.342,3.294H1098.559v64.619h93.669a9.909,9.909,0,0,1,6.582,2.281c1.772,1.52,2.785,3.8,2.785,7.1v49.922a12.273,12.273,0,0,1-2.279,6.842,7.417,7.417,0,0,1-6.582,3.294h-94.176v128.478c0,6.082-3.291,8.869-9.62,8.869h-63.543c-5.063-.76-7.595-3.548-7.595-8.869V806.33Z" transform="translate(-8852.056 2376.414)"></path><path id="Path_80" data-name="Path 80" class="cls-2" d="M1120.953,812.265a18.936,18.936,0,0,1,3.291-11.4q3.418-4.562,11.392-4.561h51.138a10.27,10.27,0,0,1,4.3,1.267,13.061,13.061,0,0,1,4.3,3.294,14.65,14.65,0,0,1,3.291,5.068,13.951,13.951,0,0,1,1.266,6.589v311.946c0,5.322-1.519,9.376-4.557,11.91-3.038,2.788-6.835,4.054-11.645,4.054h-48.354c-5.316,0-9.366-1.267-11.392-4.054-2.278-2.787-3.291-6.842-3.291-11.91v-312.2Z" transform="translate(-8694.451 2375.801)"></path><path id="Path_81" data-name="Path 81" class="cls-2" d="M1398.823,1063.244a136.392,136.392,0,0,1-41.265,26.355,125.079,125.079,0,0,1-48.606,9.63,142.871,142.871,0,0,1-53.924-10.39,139.357,139.357,0,0,1-44.556-28.889,135.1,135.1,0,0,1-30.379-43.586A130.481,130.481,0,0,1,1168.7,961.88a141.092,141.092,0,0,1,4.557-35.731,149.416,149.416,0,0,1,12.658-32.183,134.866,134.866,0,0,1,20-27.622,125.672,125.672,0,0,1,26.329-21.54,122.656,122.656,0,0,1,31.645-13.937,130.176,130.176,0,0,1,36.2-5.068,124.112,124.112,0,0,1,33.671,4.561,130.871,130.871,0,0,1,30.632,12.924,125.266,125.266,0,0,1,26.076,20.02,142.1,142.1,0,0,1,20.506,25.594,119.191,119.191,0,0,1,13.164,29.649,115.582,115.582,0,0,1,4.81,32.436c0,7.349,0,13.177-.253,17.739s-1.266,8.362-3.291,10.9c-2.025,2.787-5.063,4.561-9.62,5.575s-11.139,1.52-20,1.52H1245.661A50.233,50.233,0,0,0,1268.7,1023.2a57.72,57.72,0,0,0,17.721,7.6,75.566,75.566,0,0,0,17.722,2.281,81.724,81.724,0,0,0,15.442-1.52,153.372,153.372,0,0,0,15.443-4.054,96.783,96.783,0,0,0,13.671-6.082,55.436,55.436,0,0,0,9.873-7.1,49.822,49.822,0,0,1,5.823-4.054,8.889,8.889,0,0,1,5.064-1.267,10.223,10.223,0,0,1,5.569,1.774,50.319,50.319,0,0,1,6.329,5.322l22.025,25.087a18.25,18.25,0,0,1,3.038,4.815,14.049,14.049,0,0,1,.506,4.561,11.335,11.335,0,0,1-2.279,7.1A39.4,39.4,0,0,1,1398.823,1063.244Zm-100.5-173.838a37.964,37.964,0,0,0-15.7,3.294,62.366,62.366,0,0,0-14.177,8.616,61.591,61.591,0,0,0-11.9,12.417,83.164,83.164,0,0,0-8.607,13.937h106.58a125.955,125.955,0,0,0-9.62-14.951,66.276,66.276,0,0,0-11.645-12.164,49.977,49.977,0,0,0-14.937-8.109A60.333,60.333,0,0,0,1298.319,889.406Z" transform="translate(-8620.935 2421.056)"></path><path id="Path_82" data-name="Path 82" class="cls-2" d="M1273.321,1084.763c-.506-2.027,0-3.8,1.012-5.828a39.921,39.921,0,0,1,3.038-4.815l83.037-117.075-78.733-112.007a44.681,44.681,0,0,1-3.544-5.828,12.805,12.805,0,0,1-1.266-5.828,5.508,5.508,0,0,1,2.785-4.308c1.519-1.267,4.3-1.774,8.1-1.774h65.568a7.91,7.91,0,0,1,6.076,3.041,57.5,57.5,0,0,1,5.823,7.856l39.746,64.619c2.532-3.8,5.823-8.616,9.114-14.191,3.544-5.828,7.089-11.656,10.632-17.992,3.8-6.082,7.342-12.164,10.633-17.992s6.329-10.9,8.861-14.951a31.308,31.308,0,0,1,6.582-7.856,11.31,11.31,0,0,1,7.089-2.281h66.075a9.659,9.659,0,0,1,8.354,4.055,6.449,6.449,0,0,1,1.013,4.308,9.122,9.122,0,0,1-2.785,5.322l-81.518,115.3,81.265,113.527a36.984,36.984,0,0,1,4.3,7.6,13.3,13.3,0,0,1,1.519,7.349,8.232,8.232,0,0,1-3.038,5.575c-1.772,1.52-5.063,2.281-9.62,2.281h-67.594c-6.329,0-10.886-3.548-13.924-10.9l-37.214-66.9-37.468,67.66a21.425,21.425,0,0,1-5.823,7.349,11.319,11.319,0,0,1-6.835,2.787h-72.657a10.7,10.7,0,0,1-5.063-1.267c-1.519-.76-2.532-2.281-3.544-4.561Z" transform="translate(-8461.003 2423.357)"></path><path id="Path_83" data-name="Path 83" class="cls-2" d="M1637.566,1089.018a14.338,14.338,0,0,1-5.823,3.041,23.624,23.624,0,0,1-5.822.507h-31.392a17.916,17.916,0,0,1-6.582-1.267,15.772,15.772,0,0,1-4.557-3.548,18.231,18.231,0,0,1-3.038-5.322,57.132,57.132,0,0,1-2.025-6.082l-4.3-20.526c-2.025,4.308-5.569,8.869-10.379,13.684a84.654,84.654,0,0,1-17.975,13.177,105.618,105.618,0,0,1-24.81,9.883,115.841,115.841,0,0,1-30.38,4.054c-15.949,0-29.873-3.041-42.025-9.123a90.036,90.036,0,0,1-30.886-25.087,113.766,113.766,0,0,1-18.987-37A154.216,154.216,0,0,1,1392,980.305V843.465c0-5.322,1.266-9.376,3.544-11.91,2.279-2.787,5.823-4.054,10.886-4.054h48.1c6.076,0,10.126,1.014,12.4,3.041s3.291,6.082,3.291,11.91V978.278a42.48,42.48,0,0,0,3.544,16.979,44.688,44.688,0,0,0,9.367,14.191,40.525,40.525,0,0,0,13.671,9.63,41.155,41.155,0,0,0,16.709,3.548,55.012,55.012,0,0,0,16.2-2.534,53.411,53.411,0,0,0,16.2-7.856,43.009,43.009,0,0,0,12.405-13.684,38.511,38.511,0,0,0,5.063-20.019V842.7a23.288,23.288,0,0,1,1.266-7.1,10.765,10.765,0,0,1,4.051-5.322,28.687,28.687,0,0,1,5.063-2.281,18.966,18.966,0,0,1,5.569-.507h47.088c6.076,0,10.38,1.52,12.911,4.308a17.588,17.588,0,0,1,4.051,11.657v233.643a15.011,15.011,0,0,1-1.772,7.349,14.021,14.021,0,0,1-4.81,5.321Z" transform="translate(-8278.929 2423.664)"></path><path id="Path_84" data-name="Path 84" class="cls-2" d="M1704.659,1114.635a113.693,113.693,0,0,1-12.911,11.15,91.093,91.093,0,0,1-15.7,9.883,97.394,97.394,0,0,1-18.227,7.1,78.526,78.526,0,0,1-20.506,2.788c-18.987,0-36.455-3.548-52.151-10.643a122.222,122.222,0,0,1-41.012-29.142,134.128,134.128,0,0,1-26.835-43.586c-6.582-16.725-9.62-34.717-9.62-53.976a151.3,151.3,0,0,1,9.62-53.976c6.582-16.725,15.443-31.169,26.835-43.333a122.227,122.227,0,0,1,41.012-29.142,127.125,127.125,0,0,1,52.151-10.643,107.522,107.522,0,0,1,21.013,2.027,68.791,68.791,0,0,1,17.215,5.828,81.383,81.383,0,0,1,14.43,8.869,132.359,132.359,0,0,1,12.4,11.4V812.065a16.582,16.582,0,0,1,4.05-11.4q4.178-4.562,12.152-4.561h46.835a17.274,17.274,0,0,1,5.823,1.267,17.968,17.968,0,0,1,5.569,3.294,13.343,13.343,0,0,1,4.051,5.068,14.042,14.042,0,0,1,1.519,6.589v312.2c0,10.643-5.569,15.965-16.961,15.965h-41.012a15.587,15.587,0,0,1-6.582-1.014,11.214,11.214,0,0,1-3.8-3.041,18.972,18.972,0,0,1-2.784-5.068c-.76-2.027-1.772-4.308-3.038-7.1ZM1582.636,1008.2a79.1,79.1,0,0,0,4.3,25.848,58.487,58.487,0,0,0,12.152,20.779,61.458,61.458,0,0,0,18.987,13.938,60.271,60.271,0,0,0,24.81,5.068,64,64,0,0,0,25.063-4.815,66.268,66.268,0,0,0,20.506-13.177,63.705,63.705,0,0,0,14.177-20.02,62.541,62.541,0,0,0,5.823-24.581V1008.2a67.843,67.843,0,0,0-5.063-25.594,63.337,63.337,0,0,0-13.924-21.286,66.469,66.469,0,0,0-20.759-14.444,63.991,63.991,0,0,0-26.076-5.322,57.354,57.354,0,0,0-24.81,5.322,56.489,56.489,0,0,0-18.987,14.444,63.1,63.1,0,0,0-12.152,21.286A78.535,78.535,0,0,0,1582.636,1008.2Z" transform="translate(-8101.72 2375.494)"></path><path id="Path_85" data-name="Path 85" class="cls-2" d="M1632.934,847.419c-2.278-5.575-2.278-10.39,0-14.191,2.279-4.054,6.835-5.828,14.177-5.828h51.645a11.439,11.439,0,0,1,8.608,3.294,22.076,22.076,0,0,1,5.063,8.109l58.987,168.01,57.721-168.01c1.519-4.561,3.544-7.349,5.823-8.869s5.569-2.281,9.873-2.281h53.67a22.745,22.745,0,0,1,9.114,1.52,11.127,11.127,0,0,1,4.81,4.054,9.278,9.278,0,0,1,1.012,5.828,18.178,18.178,0,0,1-1.771,6.335c-5.317,13.177-11.139,27.368-17.215,42.826-6.329,15.458-12.658,31.676-19.494,48.4s-13.671,33.957-20.506,51.188-13.67,34.464-20.253,51.188-12.911,32.69-18.987,48.148-11.645,29.4-16.708,42.319-9.62,24.074-13.164,33.957c-3.8,9.629-6.582,17.231-8.607,22.553l.506-1.014a18.247,18.247,0,0,1-5.316,9.123,13.256,13.256,0,0,1-9.114,3.548h-48.1c-6.329,0-10.633-1.267-12.911-3.548-2.279-2.534-3.544-6.082-3.544-10.644a8.2,8.2,0,0,1,.76-4.054c.506-1.014.759-1.521,1.266-1.774l32.658-85.146Z" transform="translate(-7912.528 2423.51)"></path></g></svg> 