<svg width="83" height="82" viewBox="0 0 83 82" fill="none" xmlns="http://www.w3.org/2000/svg">
<path d="M21.0466 81.71C16.1106 81.4882 13.4292 80.6767 11.6457 79.9894C9.28252 79.0804 7.59771 77.9983 5.82409 76.2485C4.05047 74.4987 2.95274 72.8342 2.03757 70.4995C1.34193 68.7375 0.520492 66.0884 0.296015 61.2118C0.0493358 55.9404 0 54.3588 0 41.0037C0 27.6485 0.0542693 26.0693 0.293548 20.7931C0.518025 15.9165 1.3444 13.2723 2.0351 11.5054C2.95521 9.17068 4.05293 7.50617 5.82162 5.75148C7.59277 4.00166 9.27759 2.91473 11.6432 2.01058C13.4267 1.32333 16.1081 0.511784 21.0442 0.290011C26.3823 0.0487413 27.9857 0 41.4988 0C55.0168 0 56.6152 0.0536155 61.9558 0.290011C66.8919 0.511784 69.5683 1.3282 71.3568 2.01058C73.7199 2.91473 75.4048 4.00166 77.1784 5.75148C78.952 7.50129 80.0448 9.16825 80.9649 11.503C81.6605 13.265 82.482 15.914 82.7065 20.7906C82.9507 26.0669 83 27.6461 83 41.0012C83 54.3515 82.9507 55.9356 82.7065 61.2118C82.482 66.0884 81.6556 68.7375 80.9649 70.4995C80.0448 72.8342 78.9495 74.4987 77.1784 76.2485C75.4072 77.9983 73.7199 79.0804 71.3568 79.9894C69.5733 80.6767 66.8919 81.4882 61.9558 81.71C56.6202 81.9513 55.0168 82 41.4988 82C27.9857 82 26.3823 81.9537 21.0466 81.71Z" fill="url(#paint0_radial)"/>
<path d="M21.0466 81.71C16.1106 81.4882 13.4292 80.6767 11.6457 79.9894C9.28252 79.0804 7.59771 77.9983 5.82409 76.2485C4.05047 74.4987 2.95274 72.8342 2.03757 70.4995C1.34193 68.7375 0.520492 66.0884 0.296015 61.2118C0.0493358 55.9404 0 54.3588 0 41.0037C0 27.6485 0.0542693 26.0693 0.293548 20.7931C0.518025 15.9165 1.3444 13.2723 2.0351 11.5054C2.95521 9.17068 4.05293 7.50617 5.82162 5.75148C7.59277 4.00166 9.27759 2.91473 11.6432 2.01058C13.4267 1.32333 16.1081 0.511784 21.0442 0.290011C26.3823 0.0487413 27.9857 0 41.4988 0C55.0168 0 56.6152 0.0536155 61.9558 0.290011C66.8919 0.511784 69.5683 1.3282 71.3568 2.01058C73.7199 2.91473 75.4048 4.00166 77.1784 5.75148C78.952 7.50129 80.0448 9.16825 80.9649 11.503C81.6605 13.265 82.482 15.914 82.7065 20.7906C82.9507 26.0669 83 27.6461 83 41.0012C83 54.3515 82.9507 55.9356 82.7065 61.2118C82.482 66.0884 81.6556 68.7375 80.9649 70.4995C80.0448 72.8342 78.9495 74.4987 77.1784 76.2485C75.4072 77.9983 73.7199 79.0804 71.3568 79.9894C69.5733 80.6767 66.8919 81.4882 61.9558 81.71C56.6202 81.9513 55.0168 82 41.4988 82C27.9857 82 26.3823 81.9537 21.0466 81.71Z" fill="url(#paint1_radial)"/>
<path d="M31.3099 41.174C31.3099 35.5661 35.9102 31.0188 41.5865 31.0188C47.2629 31.0188 51.8656 35.5661 51.8656 41.174C51.8656 46.782 47.2629 51.3293 41.5865 51.3293C35.9102 51.3293 31.3099 46.782 31.3099 41.174ZM25.7532 41.174C25.7532 49.8134 32.8418 56.8166 41.5865 56.8166C50.3313 56.8166 57.4199 49.8134 57.4199 41.174C57.4199 32.5346 50.3313 25.5315 41.5865 25.5315C32.8418 25.5315 25.7535 32.5341 25.7535 41.174H25.7532ZM54.3467 24.9112C54.3464 25.6343 54.5632 26.3411 54.9695 26.9424C55.3758 27.5438 55.9535 28.0125 56.6296 28.2895C57.3056 28.5664 58.0495 28.6391 58.7673 28.4983C59.4852 28.3576 60.1446 28.0097 60.6623 27.4986C61.18 26.9876 61.5326 26.3364 61.6757 25.6273C61.8188 24.9182 61.7458 24.1832 61.466 23.5151C61.1862 22.847 60.7122 22.2759 60.1039 21.874C59.4955 21.4721 58.7802 21.2574 58.0484 21.2571H58.0469C57.066 21.2576 56.1253 21.6426 55.4315 22.3278C54.7377 23.0129 54.3476 23.9421 54.3467 24.9112ZM29.1293 65.9707C26.123 65.8354 24.489 65.3407 23.4031 64.9228C21.9635 64.3691 20.9363 63.7096 19.8564 62.6441C18.7764 61.5786 18.1079 60.5648 17.5499 59.1425C17.1266 58.0702 16.6259 56.4554 16.4892 53.4854C16.3397 50.2743 16.3099 49.3097 16.3099 41.1745C16.3099 33.0393 16.3422 32.0774 16.4892 28.8637C16.6261 25.8936 17.1306 24.282 17.5499 23.2065C18.1104 21.7842 18.7779 20.7694 19.8564 19.7025C20.9348 18.6355 21.961 17.9751 23.4031 17.4238C24.4885 17.0056 26.123 16.5109 29.1293 16.3759C32.3795 16.2282 33.3559 16.1987 41.5865 16.1987C49.8172 16.1987 50.7946 16.2302 54.0475 16.3764C57.0538 16.5116 58.6851 17.01 59.7737 17.4243C61.2133 17.9756 62.2404 18.6375 63.3204 19.703C64.4004 20.7685 65.0664 21.7847 65.6269 23.207C66.0502 24.2793 66.5509 25.8941 66.6876 28.8642C66.8371 32.0779 66.8669 33.0398 66.8669 41.175C66.8669 49.3102 66.8371 50.2721 66.6876 53.4859C66.5507 56.4559 66.0474 58.0702 65.6269 59.143C65.0664 60.5653 64.3989 61.5801 63.3204 62.6446C62.2419 63.7091 61.2133 64.3696 59.7737 64.9233C58.6883 65.3415 57.0538 65.8362 54.0475 65.9712C50.7973 66.1189 49.8209 66.1484 41.5865 66.1484C33.3522 66.1484 32.3785 66.1189 29.1293 65.9712V65.9707ZM28.874 10.8952C25.5914 11.0429 23.3484 11.5571 21.3895 12.3101C19.362 13.0878 17.6434 14.1311 15.9273 15.8239C14.2111 17.5167 13.1578 19.2148 12.3707 21.2203C11.6084 23.1568 11.0879 25.3716 10.9384 28.6146C10.7865 31.8627 10.7517 32.9012 10.7517 41.174C10.7517 49.4469 10.7865 50.4853 10.9384 53.7335C11.0879 56.9767 11.6084 59.1913 12.3707 61.1278C13.1578 63.1308 14.2114 64.8321 15.9273 66.5242C17.6432 68.2162 19.3596 69.2581 21.3895 70.0379C23.3521 70.791 25.5914 71.3052 28.874 71.4529C32.1634 71.6006 33.2128 71.6374 41.5865 71.6374C49.9603 71.6374 51.0114 71.603 54.2991 71.4529C57.5819 71.3052 59.8235 70.791 61.7836 70.0379C63.8111 69.2581 65.5297 68.2169 67.2458 66.5242C68.9619 64.8314 70.013 63.1308 70.8024 61.1278C71.5647 59.1913 72.0876 56.9765 72.2346 53.7335C72.3841 50.4829 72.4189 49.4469 72.4189 41.174C72.4189 32.9012 72.3841 31.8627 72.2346 28.6146C72.0851 25.3714 71.5647 23.1556 70.8024 21.2203C70.013 19.2173 68.9592 17.5194 67.2458 15.8239C65.5324 14.1284 63.8111 13.0878 61.7861 12.3101C59.8235 11.5571 57.5817 11.0404 54.3016 10.8952C51.0134 10.7468 49.9628 10.7107 41.5902 10.7107C33.2177 10.7107 32.1646 10.7451 28.8752 10.8952" fill="white"/>
<defs>
<radialGradient id="paint0_radial" cx="0" cy="0" r="1" gradientUnits="userSpaceOnUse" gradientTransform="translate(5.37168 80.2036) scale(105.379 104.11)">
<stop offset="0.09" stop-color="#FA8F21"/>
<stop offset="0.78" stop-color="#D82D7E"/>
</radialGradient>
<radialGradient id="paint1_radial" cx="0" cy="0" r="1" gradientUnits="userSpaceOnUse" gradientTransform="translate(57.4912 77.5706) scale(92.7347 91.6174)">
<stop offset="0.64" stop-color="#8C3AAA" stop-opacity="0"/>
<stop offset="1" stop-color="#8C3AAA"/>
</radialGradient>
</defs>
</svg>
