<svg id="Ebene_1" data-name="Ebene 1" xmlns="http://www.w3.org/2000/svg" viewBox="0 0 660.56 212.78"><defs><style>.cls-1{fill:#1d1d1b;}</style></defs><path d="M646.6,504.81a42.49,42.49,0,0,0-40.88,31.13V433.39h-1.53V547.22a42.41,42.41,0,1,0,42.41-42.41Zm0,83.29a40.88,40.88,0,1,1,40.88-40.88A40.93,40.93,0,0,1,646.6,588.1Z" transform="translate(-604.19 -433.39)"/><path d="M1068.71,505.15a42.49,42.49,0,0,0-40.88,31.13V433.73h-1.54V547.56a42.42,42.42,0,1,0,42.42-42.41Zm0,83.29a40.88,40.88,0,1,1,40.87-40.88A40.93,40.93,0,0,1,1068.71,588.44Z" transform="translate(-604.19 -433.39)"/><path d="M976.45,536.28a42.42,42.42,0,1,0,0,22.57v31.27H978V504.58h-1.54Zm-40.87,52.16a40.88,40.88,0,1,1,40.87-40.88A40.93,40.93,0,0,1,935.58,588.44Z" transform="translate(-604.19 -433.39)"/><polygon points="253.88 38.23 211.85 38.23 211.85 39.77 253.88 39.77 253.88 156.87 255.42 156.87 255.42 0 253.88 0 253.88 38.23"/><path d="M804.94,547.89c-1.55,27.23-22,40.07-40.34,40.47l-1.05,0c-25,0-38.29-20.22-40.36-40.51V504.58h-1.54v43.34h.77l-.76.08c1.36,13.45,6.59,24.52,15.11,32a40.6,40.6,0,0,0,26.9,9.93h1c16.59-.37,34.84-10.54,40.3-31.85v87.73h1.54V505.06h-1.54Z" transform="translate(-604.19 -433.39)"/><path d="M1264.65,524.16c-.93-2.93-8.31-3.24-22-.94-2.78.47-5.84,1.06-9.09,1.75l-.1,0v.09h0a42.43,42.43,0,0,0-78.41,22.47c0,.91,0,1.81.1,2.71-19.5,8.7-22.78,13.26-22.06,15.55.52,1.64,3,2.47,7.53,2.47h0a92.51,92.51,0,0,0,14.41-1.53c1.44-.25,2.94-.52,4.48-.82l-.24.12a42.42,42.42,0,0,0,80.6-18.5c0-1,0-2-.11-2.95l-1.53.11c.07.94.1,1.9.1,2.84a40.87,40.87,0,0,1-77.51,18.13A397.21,397.21,0,0,0,1202,554.84c17.4-5.52,33.47-11.65,45.23-17.28C1259.72,531.6,1265.58,527.09,1264.65,524.16Zm-21.69.58a90.38,90.38,0,0,1,14.23-1.52c5.28,0,5.92,1.17,6,1.4s.5,3.38-16.6,11.56c-2.31,1.1-4.8,2.23-7.43,3.37a42.18,42.18,0,0,0-4.86-13.15C1237.37,525.75,1240.29,525.19,1243,524.74Zm-86.22,25.6c-.06-.92-.11-1.85-.11-2.78a40.88,40.88,0,0,1,81.08-7.39c-10.39,4.42-22.88,9-36.16,13.2-17.34,5.49-33.93,9.71-46.73,11.87-18.69,3.16-20.12.43-20.22.11-.7-2.21,7.39-7.44,20.72-13.45a41.93,41.93,0,0,0,2.09,9.53l1.45-.5a40.51,40.51,0,0,1-2.06-9.7Z" transform="translate(-604.19 -433.39)"/><path class="cls-1" d="M865.81,631a7.42,7.42,0,0,1,1.77,5.34v9.61h-2.74v-9.37a5.29,5.29,0,0,0-1.26-3.79,4.53,4.53,0,0,0-3.43-1.33,4.68,4.68,0,0,0-3.62,1.47,6.05,6.05,0,0,0-1.35,4.26v8.76h-2.74V623.61h2.74v9.67a5.64,5.64,0,0,1,2.24-3.1,6.51,6.51,0,0,1,3.72-1.09A6.17,6.17,0,0,1,865.81,631Z" transform="translate(-604.19 -433.39)"/><path class="cls-1" d="M886.2,629.37V645.9h-2.74V642a5.57,5.57,0,0,1-2.25,3.08,6.55,6.55,0,0,1-3.75,1.07,6.16,6.16,0,0,1-4.64-1.85,7.41,7.41,0,0,1-1.77-5.32v-9.63h2.74v9.36a5.34,5.34,0,0,0,1.26,3.81,4.49,4.49,0,0,0,3.44,1.34,4.67,4.67,0,0,0,3.61-1.46,6.05,6.05,0,0,0,1.36-4.26v-8.79Z" transform="translate(-604.19 -433.39)"/><path class="cls-1" d="M915.27,631a7.42,7.42,0,0,1,1.77,5.34v9.61H914.3v-9.37a5.29,5.29,0,0,0-1.2-3.73,4.22,4.22,0,0,0-3.26-1.3,4.49,4.49,0,0,0-3.48,1.43,6.07,6.07,0,0,0-1.31,4.21v8.76h-2.74v-9.37a5.25,5.25,0,0,0-1.21-3.73,4.22,4.22,0,0,0-3.25-1.3,4.56,4.56,0,0,0-3.51,1.43,6.07,6.07,0,0,0-1.31,4.21v8.76h-2.74V629.37H893v3.76a5.4,5.4,0,0,1,2.16-3,6.7,6.7,0,0,1,7.22,0,5.84,5.84,0,0,1,2.22,3.15,6,6,0,0,1,2.32-3.12,6.42,6.42,0,0,1,3.67-1.1A6.09,6.09,0,0,1,915.27,631Z" transform="translate(-604.19 -433.39)"/><path class="cls-1" d="M931.84,630.36a6.29,6.29,0,0,1,2.33,3.22v-4.21h2.74V645.9h-2.74v-4.22a6.31,6.31,0,0,1-2.33,3.23,6.84,6.84,0,0,1-4.08,1.2,7.54,7.54,0,0,1-3.92-1,7,7,0,0,1-2.69-2.94,9.63,9.63,0,0,1-1-4.5,9.78,9.78,0,0,1,1-4.52,7.07,7.07,0,0,1,2.69-3,7.54,7.54,0,0,1,3.92-1A6.84,6.84,0,0,1,931.84,630.36Zm-7.35,2.85a7.24,7.24,0,0,0,0,8.88,5.27,5.27,0,0,0,4,1.61,5.68,5.68,0,0,0,2.91-.75,5.25,5.25,0,0,0,2-2.12,7.4,7.4,0,0,0,0-6.37,5.15,5.15,0,0,0-2-2.13,5.78,5.78,0,0,0-2.91-.74A5.28,5.28,0,0,0,924.49,633.21Z" transform="translate(-604.19 -433.39)"/><path class="cls-1" d="M954.35,631a7.42,7.42,0,0,1,1.78,5.34v9.61h-2.74v-9.37a5.25,5.25,0,0,0-1.27-3.79,4.53,4.53,0,0,0-3.43-1.33,4.7,4.7,0,0,0-3.62,1.47,6.05,6.05,0,0,0-1.35,4.26v8.76H941V629.37h2.74v3.91a5.64,5.64,0,0,1,2.24-3.1,6.56,6.56,0,0,1,3.72-1.09A6.15,6.15,0,0,1,954.35,631Z" transform="translate(-604.19 -433.39)"/><path class="cls-1" d="M982.51,645.9l-4.64-5.12a5.27,5.27,0,0,1-.18,1.21,4.76,4.76,0,0,1-1.78,3,5.44,5.44,0,0,1-3.49,1.14,6.62,6.62,0,0,1-3.31-.8,5.64,5.64,0,0,1-2.26-2.23,6.55,6.55,0,0,1-.81-3.29,6.74,6.74,0,0,1,.73-3.24,5.17,5.17,0,0,1,2-2.08,5.41,5.41,0,0,1,2.74-.71,5,5,0,0,1,.66.06l-.45-.57a9.22,9.22,0,0,1-1.28-1.94,5,5,0,0,1-.44-2.15,4.48,4.48,0,0,1,2.47-4,6.18,6.18,0,0,1,2.95-.66,5.55,5.55,0,0,1,4,1.29,7.67,7.67,0,0,1,1.79,4.61,2.49,2.49,0,0,1,0,.45h-2.59a2.56,2.56,0,0,0,0-.5c0-.19,0-.32,0-.4a3.32,3.32,0,0,0-.84-2.34,3,3,0,0,0-2.26-.82,2.8,2.8,0,0,0-2.09.78,2.61,2.61,0,0,0-.77,1.9,3.39,3.39,0,0,0,.35,1.59,8.23,8.23,0,0,0,1.13,1.57l11.26,13.31Zm-7.36-3.19a3.65,3.65,0,0,0,1.06-2.71,3.75,3.75,0,0,0-.6-2.08,4.42,4.42,0,0,0-1.56-1.48,4.11,4.11,0,0,0-2-.54,3.5,3.5,0,0,0-2.58,1,3.79,3.79,0,0,0-1,2.83,3.88,3.88,0,0,0,1.14,2.95,4,4,0,0,0,2.83,1.08A3.76,3.76,0,0,0,975.15,642.71Z" transform="translate(-604.19 -433.39)"/><path class="cls-1" d="M1002.45,643.49v2.41h-2.05a5.26,5.26,0,0,1-3.78-1.2,5.47,5.47,0,0,1-1.25-4v-8.91H992.9v-2.38h2.47v-4.13h2.77v4.13h4.28v2.38h-4.28v9a3.08,3.08,0,0,0,.59,2.18,2.83,2.83,0,0,0,2,.59Z" transform="translate(-604.19 -433.39)"/><path class="cls-1" d="M1020.58,638.22h-13.23a5.83,5.83,0,0,0,1.62,4.25,5.26,5.26,0,0,0,3.72,1.41,5.31,5.31,0,0,0,3.32-1,4.19,4.19,0,0,0,1.65-2.69h2.92a7,7,0,0,1-1.34,3.07,7.07,7.07,0,0,1-2.7,2.11,8.94,8.94,0,0,1-3.73.75,8.53,8.53,0,0,1-4.22-1,7.22,7.22,0,0,1-2.88-2.94,9.29,9.29,0,0,1-1-4.5,9.43,9.43,0,0,1,1-4.52,7.25,7.25,0,0,1,2.88-3,8.53,8.53,0,0,1,4.22-1,8.37,8.37,0,0,1,4.2,1,7.07,7.07,0,0,1,2.74,2.74,7.73,7.73,0,0,1,1,3.79A8.17,8.17,0,0,1,1020.58,638.22Zm-3.26-4.4a4.39,4.39,0,0,0-1.89-1.83,5.71,5.71,0,0,0-2.62-.61,5.46,5.46,0,0,0-3.8,1.4,5.69,5.69,0,0,0-1.66,4.12h10.58A5.59,5.59,0,0,0,1017.32,633.82Z" transform="translate(-604.19 -433.39)"/><path class="cls-1" d="M1036.54,630.84a7.18,7.18,0,0,1,2.56,4.52h-2.89a4.25,4.25,0,0,0-1.64-2.79,5.42,5.42,0,0,0-3.33-1,5.37,5.37,0,0,0-2.64.67,4.82,4.82,0,0,0-1.91,2,8.34,8.34,0,0,0,0,6.78,4.82,4.82,0,0,0,1.91,2,5.8,5.8,0,0,0,6-.36,4.3,4.3,0,0,0,1.64-2.8h2.89a7.12,7.12,0,0,1-2.56,4.53,8.12,8.12,0,0,1-5.24,1.67,8.56,8.56,0,0,1-4.22-1,7.2,7.2,0,0,1-2.87-2.94,9.18,9.18,0,0,1-1-4.5,9.31,9.31,0,0,1,1-4.52,7.22,7.22,0,0,1,2.87-3,8.56,8.56,0,0,1,4.22-1A8.07,8.07,0,0,1,1036.54,630.84Z" transform="translate(-604.19 -433.39)"/><path class="cls-1" d="M1055.75,631a7.38,7.38,0,0,1,1.78,5.34v9.61h-2.74v-9.37a5.25,5.25,0,0,0-1.27-3.79,4.52,4.52,0,0,0-3.43-1.33,4.66,4.66,0,0,0-3.61,1.47,6,6,0,0,0-1.36,4.26v8.76h-2.74V623.61h2.74v9.67a5.61,5.61,0,0,1,2.25-3.1,6.5,6.5,0,0,1,3.71-1.09A6.15,6.15,0,0,1,1055.75,631Z" transform="translate(-604.19 -433.39)"/><path class="cls-1" d="M1072.84,626.2a3.58,3.58,0,0,0-.85,2.71v.46h3.91v2.41H1072V645.9h-2.74V631.78h-2.38v-2.41h2.38v-.67q0-5.93,6.65-5.66v2.41A4.5,4.5,0,0,0,1072.84,626.2Z" transform="translate(-604.19 -433.39)"/><path class="cls-1" d="M1090.34,630.18a7.29,7.29,0,0,1,3,3,9.21,9.21,0,0,1,1.07,4.52,9.08,9.08,0,0,1-1.07,4.5,7.26,7.26,0,0,1-3,2.94,9.41,9.41,0,0,1-8.52,0,7.37,7.37,0,0,1-3-2.94,9,9,0,0,1-1.08-4.5,9.11,9.11,0,0,1,1.08-4.52,7.4,7.4,0,0,1,3-3,9.41,9.41,0,0,1,8.52,0Zm-7,2.05a5,5,0,0,0-2,2,7.78,7.78,0,0,0,0,6.75,5,5,0,0,0,2,2,5.8,5.8,0,0,0,2.73.66,5.73,5.73,0,0,0,2.72-.66,4.94,4.94,0,0,0,2-2,7.78,7.78,0,0,0,0-6.75,4.94,4.94,0,0,0-2-2,5.73,5.73,0,0,0-2.72-.67A5.8,5.8,0,0,0,1083.35,632.23Z" transform="translate(-604.19 -433.39)"/><path class="cls-1" d="M1102.76,630a7.12,7.12,0,0,1,3.74-.95v3h-.84a5.82,5.82,0,0,0-3.8,1.19,4.76,4.76,0,0,0-1.47,3.93v8.7h-2.75V629.37h2.75v3.34A6.1,6.1,0,0,1,1102.76,630Z" transform="translate(-604.19 -433.39)"/><path class="cls-1" d="M1123.94,643.49v2.41h-2a5.26,5.26,0,0,1-3.78-1.2c-.84-.81-1.25-2.15-1.25-4v-8.91h-2.47v-2.38h2.47v-4.13h2.77v4.13h4.28v2.38h-4.28v9a3.08,3.08,0,0,0,.59,2.18,2.83,2.83,0,0,0,2,.59Z" transform="translate(-604.19 -433.39)"/><path class="cls-1" d="M1138.74,630.18a7.35,7.35,0,0,1,3,3,9.21,9.21,0,0,1,1.07,4.52,9.08,9.08,0,0,1-1.07,4.5,7.32,7.32,0,0,1-3,2.94,9.41,9.41,0,0,1-8.52,0,7.37,7.37,0,0,1-3-2.94,9,9,0,0,1-1.08-4.5,9.11,9.11,0,0,1,1.08-4.52,7.4,7.4,0,0,1,3-3,9.41,9.41,0,0,1,8.52,0Zm-7,2.05a5.06,5.06,0,0,0-2,2,7.87,7.87,0,0,0,0,6.75,5.06,5.06,0,0,0,2,2,6,6,0,0,0,5.45,0,4.94,4.94,0,0,0,2-2,7.78,7.78,0,0,0,0-6.75,4.94,4.94,0,0,0-2-2,5.88,5.88,0,0,0-5.45,0Z" transform="translate(-604.19 -433.39)"/><path class="cls-1" d="M1171,631a7.42,7.42,0,0,1,1.77,5.34v9.61H1170v-9.37a5.29,5.29,0,0,0-1.19-3.73,4.22,4.22,0,0,0-3.26-1.3,4.49,4.49,0,0,0-3.48,1.43,6.07,6.07,0,0,0-1.31,4.21v8.76h-2.74v-9.37a5.25,5.25,0,0,0-1.21-3.73,4.22,4.22,0,0,0-3.25-1.3,4.54,4.54,0,0,0-3.51,1.43,6.07,6.07,0,0,0-1.31,4.21v8.76H1146V629.37h2.74v3.76a5.4,5.4,0,0,1,2.16-3,6.7,6.7,0,0,1,7.22,0,5.84,5.84,0,0,1,2.22,3.15,6,6,0,0,1,2.32-3.12,6.4,6.4,0,0,1,3.67-1.1A6.09,6.09,0,0,1,1171,631Z" transform="translate(-604.19 -433.39)"/><path class="cls-1" d="M1188.49,630.18a7.29,7.29,0,0,1,3,3,9.1,9.1,0,0,1,1.07,4.52,9,9,0,0,1-1.07,4.5,7.26,7.26,0,0,1-3,2.94,9.41,9.41,0,0,1-8.52,0,7.37,7.37,0,0,1-3-2.94,9,9,0,0,1-1.08-4.5,9.11,9.11,0,0,1,1.08-4.52,7.4,7.4,0,0,1,3-3,9.41,9.41,0,0,1,8.52,0Zm-7,2.05a5,5,0,0,0-2,2,7.78,7.78,0,0,0,0,6.75,5,5,0,0,0,2,2,6,6,0,0,0,5.46,0,5,5,0,0,0,2-2,7.78,7.78,0,0,0,0-6.75,5,5,0,0,0-2-2,5.9,5.9,0,0,0-5.46,0Z" transform="translate(-604.19 -433.39)"/><path class="cls-1" d="M1200.92,630a7.06,7.06,0,0,1,3.73-.95v3h-.84a5.84,5.84,0,0,0-3.8,1.19,4.76,4.76,0,0,0-1.47,3.93v8.7h-2.75V629.37h2.75v3.34A6.06,6.06,0,0,1,1200.92,630Z" transform="translate(-604.19 -433.39)"/><path class="cls-1" d="M1212.18,630a7.08,7.08,0,0,1,3.73-.95v3h-.84a5.84,5.84,0,0,0-3.8,1.19,4.76,4.76,0,0,0-1.47,3.93v8.7h-2.74V629.37h2.74v3.34A6.06,6.06,0,0,1,1212.18,630Z" transform="translate(-604.19 -433.39)"/><path class="cls-1" d="M1230.08,630.18a7.29,7.29,0,0,1,3,3,9.1,9.1,0,0,1,1.07,4.52,9,9,0,0,1-1.07,4.5,7.26,7.26,0,0,1-3,2.94,9.41,9.41,0,0,1-8.52,0,7.43,7.43,0,0,1-3-2.94,9,9,0,0,1-1.08-4.5,9.11,9.11,0,0,1,1.08-4.52,7.46,7.46,0,0,1,3-3,9.41,9.41,0,0,1,8.52,0Zm-7,2.05a5,5,0,0,0-2,2,7.78,7.78,0,0,0,0,6.75,5,5,0,0,0,2,2,6,6,0,0,0,5.46,0,5,5,0,0,0,2-2,7.78,7.78,0,0,0,0-6.75,5,5,0,0,0-2-2,5.9,5.9,0,0,0-5.46,0Z" transform="translate(-604.19 -433.39)"/><path class="cls-1" d="M1260.09,629.37l-4.76,16.53h-2.95l-4.54-13.46-4.58,13.46h-3l-4.7-16.53h2.77l3.52,13.91,4.58-13.91h2.86l4.61,13.88,3.55-13.88Z" transform="translate(-604.19 -433.39)"/><path class="cls-1" d="M1264.37,642.68v3.22h-3.31v-3.22Z" transform="translate(-604.19 -433.39)"/></svg>