<svg width="103" height="83" viewBox="0 0 103 83" fill="none" xmlns="http://www.w3.org/2000/svg">
<g clip-path="url(#clip0)">
<path d="M103 10.1062C99.143 11.7927 95.052 12.8997 90.8629 13.3904C95.2263 10.8091 98.5766 6.72145 100.154 1.85106C96.0063 4.28064 91.468 5.99243 86.7357 6.91247C82.8808 2.85897 77.3892 0.325684 71.311 0.325684C59.6406 0.325684 50.1787 9.66457 50.1787 21.1829C50.1787 22.8179 50.3658 24.4096 50.7259 25.9365C33.1636 25.0664 17.5929 16.7629 7.17017 4.14368C5.35157 7.22422 4.3095 10.8075 4.3095 14.6295C4.3095 21.866 8.04044 28.2498 13.7103 31.9904C10.3545 31.8867 7.0726 30.992 4.13851 29.3812C4.1373 29.4686 4.1373 29.556 4.1373 29.6438C4.1373 39.7495 11.4213 48.1798 21.088 50.0959C17.9763 50.9312 14.7122 51.0535 11.5453 50.4533C14.2341 58.7398 22.0384 64.7698 31.285 64.9386C24.0529 70.5326 14.941 73.8673 5.04097 73.8673C3.33503 73.8673 1.65323 73.7684 0 73.5758C9.35168 79.4938 20.4592 82.9468 32.3927 82.9468C71.2619 82.9468 92.5165 51.1642 92.5165 23.6018C92.5165 22.6972 92.4964 21.7977 92.4554 20.9033C96.5924 17.9514 100.163 14.2952 103 10.1062Z" fill="#55ACEE"/>
</g>
<defs>
<clipPath id="clip0">
<rect width="103" height="83" fill="white"/>
</clipPath>
</defs>
</svg>
