<svg width="154" height="452" viewBox="0 0 154 452" fill="none" xmlns="http://www.w3.org/2000/svg">
<g filter="url(#filter0_d)">
<path d="M69.2384 431.296C71.3348 431.993 73.5991 430.858 74.2958 428.762C74.9926 426.665 73.858 424.401 71.7616 423.704L69.2384 431.296ZM62.7512 20.0711C60.5814 19.6564 58.4861 21.0792 58.0714 23.249C57.6566 25.4189 59.0794 27.5141 61.2493 27.9289L62.7512 20.0711ZM71.7616 423.704C51.0688 416.827 39.2415 406.425 33.3152 393.781C27.3268 381.005 27.0253 365.232 30.8971 347.003C38.6761 310.379 62.7241 266.172 85.9232 221.597C97.4533 199.443 108.724 177.27 117.43 156.185C126.123 135.13 132.374 114.892 133.693 96.616C135.017 78.262 131.377 61.5944 119.963 48.1794C108.612 34.8392 90.0581 25.2906 62.7512 20.0711L61.2493 27.9289C87.5673 32.9594 104.138 41.9264 113.87 53.3636C123.537 64.7259 126.936 79.0974 125.714 96.0402C124.485 113.061 118.604 132.377 110.035 153.132C101.479 173.855 90.3593 195.745 78.8268 217.903C55.9009 261.953 31.1364 307.371 23.0716 345.341C19.0216 364.409 19.0403 382.175 26.0714 397.176C33.1647 412.31 47.0562 423.923 69.2384 431.296L71.7616 423.704Z" fill="white"/>
</g>
<defs>
<filter id="filter0_d" x="0.338135" y="-0.000732422" width="153.613" height="451.502" filterUnits="userSpaceOnUse" color-interpolation-filters="sRGB">
<feFlood flood-opacity="0" result="BackgroundImageFix"/>
<feColorMatrix in="SourceAlpha" type="matrix" values="0 0 0 0 0 0 0 0 0 0 0 0 0 0 0 0 0 0 127 0" result="hardAlpha"/>
<feOffset/>
<feGaussianBlur stdDeviation="10"/>
<feComposite in2="hardAlpha" operator="out"/>
<feColorMatrix type="matrix" values="0 0 0 0 0 0 0 0 0 0 0 0 0 0 0 0 0 0 0.2 0"/>
<feBlend mode="normal" in2="BackgroundImageFix" result="effect1_dropShadow"/>
<feBlend mode="normal" in="SourceGraphic" in2="effect1_dropShadow" result="shape"/>
</filter>
</defs>
</svg>
