<svg width="265" height="455" viewBox="0 0 265 455" fill="none" xmlns="http://www.w3.org/2000/svg">
<g filter="url(#filter0_d)">
<path d="M24.1016 427.02C21.9035 427.24 20.2999 429.2 20.5199 431.398C20.7399 433.597 22.7002 435.2 24.8984 434.98L24.1016 427.02ZM242.858 28.0422C244.814 27.0159 245.568 24.5981 244.542 22.6418C243.516 20.6855 241.098 19.9316 239.142 20.9578L242.858 28.0422ZM24.8984 434.98C46.7096 432.797 63.4408 426.393 76.2662 416.402C89.088 406.413 97.7105 393.068 103.689 377.496C115.537 346.639 117.287 306.079 120.366 263.665C126.574 178.158 138.196 82.9468 242.858 28.0422L239.142 20.9578C130.304 78.0532 118.594 177.592 112.387 263.085C109.259 306.171 107.53 345.174 96.2208 374.629C90.6212 389.213 82.7459 401.212 71.3497 410.091C59.957 418.966 44.7499 424.953 24.1016 427.02L24.8984 434.98Z" fill="white"/>
</g>
<defs>
<filter id="filter0_d" x="0.499756" y="0.499268" width="264.501" height="454.501" filterUnits="userSpaceOnUse" color-interpolation-filters="sRGB">
<feFlood flood-opacity="0" result="BackgroundImageFix"/>
<feColorMatrix in="SourceAlpha" type="matrix" values="0 0 0 0 0 0 0 0 0 0 0 0 0 0 0 0 0 0 127 0" result="hardAlpha"/>
<feOffset/>
<feGaussianBlur stdDeviation="10"/>
<feComposite in2="hardAlpha" operator="out"/>
<feColorMatrix type="matrix" values="0 0 0 0 0 0 0 0 0 0 0 0 0 0 0 0 0 0 0.2 0"/>
<feBlend mode="normal" in2="BackgroundImageFix" result="effect1_dropShadow"/>
<feBlend mode="normal" in="SourceGraphic" in2="effect1_dropShadow" result="shape"/>
</filter>
</defs>
</svg>
