<svg width="315" height="423" viewBox="0 0 315 423" fill="none" xmlns="http://www.w3.org/2000/svg">
<g filter="url(#filter0_d)">
<rect x="20" y="20" width="275" height="383" rx="8" fill="white"/>
<path d="M48.1606 38.06C49.347 38.06 50.4444 38.2281 51.4529 38.5643C52.4613 38.9004 53.3511 39.3354 54.1223 39.8693C54.8934 40.4032 55.4965 40.9766 55.9315 41.5896L53.8553 43.7548C53.0644 43.0034 52.1944 42.3904 51.2452 41.9158C50.2961 41.4215 49.2679 41.1743 48.1606 41.1743C46.7567 41.1743 45.4813 41.5006 44.3345 42.1531C43.2074 42.8056 42.3176 43.6954 41.6651 44.8225C41.0125 45.9298 40.6863 47.1953 40.6863 48.619C40.6863 50.0229 41.0323 51.2983 41.7244 52.4451C42.4164 53.592 43.3359 54.5016 44.4828 55.1739C45.6494 55.8462 46.9149 56.1823 48.2792 56.1823C49.2679 56.1823 50.1973 55.9945 51.0673 55.6188C51.9373 55.2233 52.6393 54.6894 53.1731 54.0171C53.7268 53.3448 54.0036 52.5737 54.0036 51.7036C54.0036 51.6048 54.0036 51.5455 54.0036 51.5257H48.1013V48.3521H57.2959C57.3354 48.6487 57.3651 48.9453 57.3849 49.2419C57.4244 49.5385 57.4442 49.8351 57.4442 50.1317C57.4442 51.2192 57.2761 52.287 56.94 53.3349C56.6236 54.3829 56.1194 55.2925 55.4273 56.0637C54.6364 57.0523 53.6082 57.8433 52.3427 58.4365C51.0969 59.0099 49.7128 59.2966 48.1903 59.2966C46.6875 59.2966 45.2836 59.0297 43.9785 58.4958C42.6735 57.9421 41.5266 57.1809 40.538 56.212C39.5493 55.2431 38.7782 54.116 38.2245 52.8307C37.6906 51.5257 37.4237 50.1218 37.4237 48.619C37.4237 47.1162 37.6906 45.7321 38.2245 44.4666C38.7782 43.1813 39.5394 42.0641 40.5083 41.115C41.497 40.1461 42.6438 39.3947 43.9489 38.8609C45.2539 38.327 46.6578 38.06 48.1606 38.06ZM74.6606 56.9535H74.631C73.9982 57.5664 73.1282 58.1102 72.0209 58.5848C70.9136 59.0593 69.7568 59.2966 68.5507 59.2966C66.9292 59.2966 65.4957 58.9605 64.25 58.2882C63.024 57.5961 62.065 56.6569 61.3729 55.4705C60.6809 54.2643 60.3348 52.8999 60.3348 51.3774C60.3348 49.6373 60.7006 48.1543 61.4323 46.9284C62.1639 45.6827 63.1328 44.7335 64.3389 44.081C65.5451 43.4087 66.86 43.0726 68.2837 43.0726C69.5888 43.0726 70.7752 43.3988 71.8429 44.0514C72.9107 44.6841 73.7609 45.564 74.3937 46.6911C75.0264 47.8182 75.3428 49.1331 75.3428 50.6359L75.3131 51.9409H63.3898C63.5678 53.3448 64.1412 54.462 65.1101 55.2925C66.0988 56.1032 67.3445 56.5086 68.8473 56.5086C69.9348 56.5086 70.8147 56.3108 71.487 55.9154C72.1593 55.5001 72.7129 55.1047 73.148 54.729L74.6606 56.9535ZM68.2837 45.8903C67.1171 45.8903 66.0988 46.1671 65.2287 46.7208C64.3587 47.2546 63.7853 48.184 63.5085 49.5088H72.2285V49.3012C72.1692 48.6289 71.9418 48.0357 71.5463 47.5216C71.1706 47.0075 70.6961 46.612 70.1226 46.3352C69.5492 46.0386 68.9362 45.8903 68.2837 45.8903ZM87.556 46.5131H83.8781V59H80.7935V46.5131H78.302V43.6954H80.7935V41.6786C80.7935 40.334 81.2186 39.2366 82.0689 38.3863C82.9389 37.5163 84.0561 37.0813 85.4204 37.0813C86.2114 37.0813 86.8639 37.2296 87.378 37.5262C87.9119 37.8228 88.2975 38.1095 88.5347 38.3863L87.4966 40.7294C87.2989 40.5317 87.0419 40.3537 86.7255 40.1956C86.4091 40.0176 86.0927 39.9286 85.7764 39.9286C85.0645 39.9286 84.5702 40.0967 84.2934 40.4328C84.0165 40.769 83.8781 41.1842 83.8781 41.6786V43.6954H87.556V46.5131ZM101.805 52.8011V43.4285H104.86V59H101.805V56.5086C101.35 57.2402 100.678 57.8927 99.7881 58.4661C98.9181 59.0198 97.8701 59.2966 96.6442 59.2966C95.0228 59.2966 93.7078 58.7429 92.6994 57.6356C91.691 56.5283 91.1867 54.9959 91.1867 53.0383V43.4285H94.2417V52.2079C94.2417 52.9988 94.3604 53.7304 94.5976 54.4027C94.8547 55.075 95.2502 55.6188 95.784 56.034C96.3377 56.4295 97.0396 56.6272 97.8899 56.6272C98.9577 56.6272 99.8771 56.2911 100.648 55.6188C101.419 54.9465 101.805 54.0072 101.805 52.8011ZM94.8349 40.5811C94.1428 40.5811 93.6287 40.4032 93.2926 40.0473C92.9564 39.6913 92.7884 39.2267 92.7884 38.6532C92.7884 38.1589 92.9564 37.714 93.2926 37.3185C93.6287 36.9231 94.1428 36.7253 94.8349 36.7253C95.527 36.7253 96.0411 36.9033 96.3772 37.2592C96.7134 37.6151 96.8815 38.0798 96.8815 38.6532C96.8815 39.1476 96.7134 39.5925 96.3772 39.9879C96.0411 40.3834 95.527 40.5811 94.8349 40.5811ZM100.767 40.5811C100.075 40.5811 99.5607 40.4032 99.2246 40.0473C98.8884 39.6913 98.7204 39.2267 98.7204 38.6532C98.7204 38.1589 98.8884 37.714 99.2246 37.3185C99.5607 36.9231 100.075 36.7253 100.767 36.7253C101.459 36.7253 101.973 36.9033 102.309 37.2592C102.645 37.6151 102.813 38.0798 102.813 38.6532C102.813 39.1476 102.645 39.5925 102.309 39.9879C101.973 40.3834 101.459 40.5811 100.767 40.5811ZM117.741 43.1022C119.145 43.1022 120.233 43.389 121.004 43.9624C121.775 44.5358 122.309 45.307 122.606 46.2759C122.922 47.2448 123.08 48.3224 123.08 49.5088V59H120.025V49.7164C120.025 48.965 119.926 48.2927 119.729 47.6995C119.531 47.1063 119.195 46.6417 118.72 46.3055C118.246 45.9694 117.583 45.831 116.733 45.8903C115.942 45.8903 115.24 46.0584 114.627 46.3945C114.014 46.7306 113.53 47.1755 113.174 47.7292C112.818 48.2829 112.64 48.8958 112.64 49.5681V59H109.585V37.0516H112.64V45.8903C113.114 45.1587 113.807 44.516 114.716 43.9624C115.626 43.389 116.634 43.1022 117.741 43.1022ZM127.665 59V37.0516H130.719V59H127.665ZM148.607 56.9535H148.577C147.944 57.5664 147.074 58.1102 145.967 58.5848C144.859 59.0593 143.703 59.2966 142.497 59.2966C140.875 59.2966 139.442 58.9605 138.196 58.2882C136.97 57.5961 136.011 56.6569 135.319 55.4705C134.627 54.2643 134.281 52.8999 134.281 51.3774C134.281 49.6373 134.647 48.1543 135.378 46.9284C136.11 45.6827 137.079 44.7335 138.285 44.081C139.491 43.4087 140.806 43.0726 142.23 43.0726C143.535 43.0726 144.721 43.3988 145.789 44.0514C146.857 44.6841 147.707 45.564 148.34 46.6911C148.972 47.8182 149.289 49.1331 149.289 50.6359L149.259 51.9409H137.336C137.514 53.3448 138.087 54.462 139.056 55.2925C140.045 56.1032 141.29 56.5086 142.793 56.5086C143.881 56.5086 144.761 56.3108 145.433 55.9154C146.105 55.5001 146.659 55.1047 147.094 54.729L148.607 56.9535ZM142.23 45.8903C141.063 45.8903 140.045 46.1671 139.175 46.7208C138.305 47.2546 137.731 48.184 137.454 49.5088H146.174V49.3012C146.115 48.6289 145.888 48.0357 145.492 47.5216C145.117 47.0075 144.642 46.612 144.069 46.3352C143.495 46.0386 142.882 45.8903 142.23 45.8903Z" fill="#263238"/>
<path d="M43.4419 79H37.3198V77.167H39.391V68.0021H37.3198V66.1691H43.4419V68.0021H41.3707V77.167H43.4419V79ZM51.3637 69.1752C52.2313 69.1752 52.9034 69.3524 53.38 69.7068C53.8566 70.0611 54.1865 70.5377 54.3698 71.1365C54.5653 71.7353 54.6631 72.4012 54.6631 73.1344V79H52.7751V73.2627C52.7751 72.7984 52.714 72.3829 52.5918 72.0163C52.4696 71.6497 52.2619 71.3625 51.9686 71.1548C51.6753 70.9471 51.2659 70.8615 50.7405 70.8982C50.2517 70.8982 49.8179 71.0021 49.4391 71.2098C49.0602 71.4175 48.7609 71.6925 48.5409 72.0346C48.3209 72.3768 48.211 72.7556 48.211 73.1711V79H46.323V69.3768H48.211V70.8982C48.5042 70.4461 48.9319 70.0489 49.4941 69.7068C50.0562 69.3524 50.6794 69.1752 51.3637 69.1752ZM68.3606 66.1691C69.3504 66.1691 70.218 66.3402 70.9634 66.6823C71.7211 67.0123 72.3504 67.4766 72.8514 68.0754C73.3524 68.6619 73.7312 69.3463 73.9879 70.1283C74.2445 70.8982 74.3728 71.7169 74.3728 72.5845C74.3728 73.7577 74.1467 74.833 73.6946 75.8106C73.2425 76.776 72.5704 77.5519 71.6783 78.1385C70.7862 78.7128 69.6803 79 68.3606 79H63.3382V66.1691H68.3606ZM68.2689 77.0937C69.2343 77.0937 70.0164 76.8921 70.6152 76.4888C71.2139 76.0733 71.6539 75.5234 71.9349 74.8391C72.216 74.1548 72.3565 73.4033 72.3565 72.5845C72.3565 71.778 72.216 71.0326 71.9349 70.3483C71.6539 69.664 71.2139 69.1141 70.6152 68.6986C70.0164 68.2831 69.2343 68.0754 68.2689 68.0754H65.3178V77.0937H68.2689ZM85.09 77.7352H85.0717C84.6806 78.1141 84.143 78.4501 83.4587 78.7434C82.7743 79.0367 82.0595 79.1833 81.3141 79.1833C80.312 79.1833 79.4261 78.9756 78.6562 78.5601C77.8986 78.1324 77.3059 77.5519 76.8782 76.8187C76.4505 76.0733 76.2367 75.2302 76.2367 74.2892C76.2367 73.2139 76.4628 72.2974 76.9149 71.5397C77.367 70.7699 77.9658 70.1833 78.7112 69.7801C79.4566 69.3646 80.2693 69.1569 81.1491 69.1569C81.9556 69.1569 82.6888 69.3585 83.3487 69.7617C84.0086 70.1528 84.534 70.6966 84.925 71.3931C85.3161 72.0896 85.5116 72.9023 85.5116 73.831L85.4933 74.6375H78.1247C78.2346 75.5051 78.589 76.1955 79.1878 76.7088C79.7988 77.2098 80.5686 77.4603 81.4974 77.4603C82.1695 77.4603 82.7132 77.3381 83.1287 77.0937C83.5442 76.8371 83.8864 76.5927 84.1552 76.3605L85.09 77.7352ZM81.1491 70.8982C80.4281 70.8982 79.7988 71.0693 79.2611 71.4114C78.7234 71.7414 78.3691 72.3157 78.198 73.1344H83.587V73.0061C83.5503 72.5907 83.4098 72.2241 83.1654 71.9063C82.9332 71.5886 82.6399 71.3442 82.2855 71.1731C81.9312 70.9898 81.5523 70.8982 81.1491 70.8982ZM94.3755 75.1691V69.3768H96.2635V79H94.3755V77.4603C94.0944 77.9124 93.679 78.3157 93.1291 78.6701C92.5914 79.0122 91.9437 79.1833 91.1861 79.1833C90.1841 79.1833 89.3714 78.8411 88.7482 78.1568C88.125 77.4725 87.8134 76.5255 87.8134 75.3157V69.3768H89.7014V74.8025C89.7014 75.2913 89.7747 75.7434 89.9213 76.1589C90.0802 76.5743 90.3246 76.9104 90.6545 77.167C90.9967 77.4114 91.4305 77.5336 91.956 77.5336C92.6158 77.5336 93.1841 77.3259 93.6606 76.9104C94.1372 76.4949 94.3755 75.9145 94.3755 75.1691ZM102.241 79H100.353V71.2098H98.3551V69.3768H100.353V66.9206H102.241V69.3768H104.477V71.2098H102.241V79ZM112.358 71.9063C112.016 71.5642 111.625 71.2831 111.185 71.0632C110.758 70.8432 110.36 70.7332 109.994 70.7332C109.737 70.7332 109.481 70.7638 109.224 70.8249C108.98 70.886 108.772 71.0021 108.601 71.1731C108.43 71.332 108.344 71.5703 108.344 71.888C108.356 72.3279 108.552 72.6395 108.931 72.8228C109.322 73.0061 109.804 73.1711 110.379 73.3177C110.88 73.4522 111.369 73.6232 111.845 73.831C112.322 74.0265 112.713 74.3198 113.018 74.7108C113.336 75.0896 113.495 75.6273 113.495 76.3238C113.495 76.9226 113.324 77.4359 112.982 77.8635C112.652 78.2912 112.218 78.6212 111.68 78.8534C111.155 79.0733 110.599 79.1833 110.012 79.1833C109.316 79.1833 108.625 79.0611 107.941 78.8167C107.269 78.5601 106.694 78.1263 106.218 77.5153L107.501 76.4155C107.831 76.7943 108.204 77.0937 108.619 77.3137C109.047 77.5214 109.566 77.6253 110.177 77.6253C110.409 77.6253 110.641 77.5886 110.874 77.5153C111.106 77.4297 111.301 77.3014 111.46 77.1304C111.631 76.9471 111.717 76.7027 111.717 76.3972C111.717 76.1039 111.625 75.8778 111.442 75.719C111.271 75.5479 111.039 75.4135 110.745 75.3157C110.452 75.2057 110.128 75.108 109.774 75.0224C109.248 74.8758 108.729 74.6986 108.216 74.4908C107.715 74.2709 107.293 73.9654 106.951 73.5744C106.621 73.1711 106.456 72.6273 106.456 71.943C106.456 71.3687 106.615 70.8799 106.933 70.4766C107.263 70.0611 107.69 69.7434 108.216 69.5235C108.741 69.2913 109.303 69.1752 109.902 69.1752C110.476 69.1752 111.1 69.2974 111.772 69.5418C112.444 69.7862 113 70.1772 113.44 70.7149L112.358 71.9063ZM117.035 74.1792C117.035 74.8147 117.176 75.3829 117.457 75.8839C117.75 76.3727 118.129 76.7638 118.593 77.057C119.07 77.3381 119.577 77.4786 120.115 77.4786C120.726 77.4786 121.257 77.3198 121.709 77.002C122.162 76.6843 122.528 76.3544 122.809 76.0122L123.854 77.2953C123.622 77.6253 123.304 77.9369 122.901 78.2301C122.498 78.5112 122.039 78.7434 121.526 78.9267C121.013 79.0978 120.475 79.1833 119.913 79.1833C119.033 79.1833 118.239 78.9633 117.53 78.5234C116.821 78.0835 116.259 77.4847 115.844 76.7271C115.441 75.9695 115.239 75.1202 115.239 74.1792C115.239 73.2261 115.441 72.3768 115.844 71.6314C116.259 70.8738 116.821 70.275 117.53 69.8351C118.239 69.3951 119.033 69.1752 119.913 69.1752C120.805 69.1752 121.599 69.3585 122.296 69.7251C122.993 70.0795 123.512 70.5438 123.854 71.1182L122.809 72.4012C122.528 71.9858 122.125 71.6314 121.599 71.3381C121.086 71.0326 120.585 70.8799 120.096 70.8799C119.522 70.8799 119.003 71.0265 118.538 71.3198C118.074 71.6008 117.707 71.9919 117.439 72.4929C117.17 72.9817 117.035 73.5438 117.035 74.1792ZM130.926 69.1752C131.793 69.1752 132.465 69.3524 132.942 69.7068C133.418 70.0611 133.748 70.5377 133.932 71.1365C134.127 71.7353 134.225 72.4012 134.225 73.1344V79H132.337V73.2627C132.337 72.7984 132.276 72.3829 132.154 72.0163C132.031 71.6497 131.824 71.3625 131.53 71.1548C131.237 70.9471 130.828 70.8615 130.302 70.8982C129.814 70.8982 129.38 71.0021 129.001 71.2098C128.622 71.4175 128.323 71.6925 128.103 72.0346C127.883 72.3768 127.773 72.7556 127.773 73.1711V79H125.885V65.4359H127.773V70.8982C128.066 70.4461 128.494 70.0489 129.056 69.7068C129.618 69.3524 130.241 69.1752 130.926 69.1752ZM137.036 79V65.4359H138.924V79H137.036ZM150.653 69.3768V79H148.747V77.5153C148.453 77.9185 148.02 78.2974 147.445 78.6517C146.871 79.0061 146.205 79.1833 145.447 79.1833C144.641 79.1833 143.901 78.9695 143.229 78.5418C142.569 78.1141 142.044 77.5214 141.653 76.7638C141.262 76.0061 141.066 75.1385 141.066 74.1609C141.066 73.1833 141.268 72.3218 141.671 71.5764C142.075 70.8188 142.631 70.2322 143.339 69.8167C144.048 69.389 144.855 69.1752 145.759 69.1752C146.431 69.1752 147.017 69.3218 147.519 69.6151C148.032 69.9084 148.441 70.2505 148.747 70.6416V69.3768H150.653ZM145.887 77.442C146.474 77.442 146.987 77.3014 147.427 77.0204C147.867 76.7271 148.209 76.3361 148.453 75.8473C148.698 75.3462 148.82 74.7841 148.82 74.1609C148.82 73.5499 148.698 73 148.453 72.5112C148.209 72.0224 147.867 71.6375 147.427 71.3564C146.987 71.0632 146.474 70.9165 145.887 70.9165C145.325 70.9165 144.824 71.0571 144.384 71.3381C143.944 71.6192 143.602 72.0041 143.358 72.4929C143.113 72.9817 142.991 73.5377 142.991 74.1609C142.991 74.7841 143.113 75.3462 143.358 75.8473C143.602 76.3361 143.944 76.7271 144.384 77.0204C144.824 77.3014 145.325 77.442 145.887 77.442ZM158.58 69.1752C159.447 69.1752 160.119 69.3524 160.596 69.7068C161.073 70.0611 161.402 70.5377 161.586 71.1365C161.781 71.7353 161.879 72.4012 161.879 73.1344V79H159.991V73.2627C159.991 72.7984 159.93 72.3829 159.808 72.0163C159.686 71.6497 159.478 71.3625 159.185 71.1548C158.891 70.9471 158.482 70.8615 157.956 70.8982C157.468 70.8982 157.034 71.0021 156.655 71.2098C156.276 71.4175 155.977 71.6925 155.757 72.0346C155.537 72.3768 155.427 72.7556 155.427 73.1711V79H153.539V69.3768H155.427V70.8982C155.72 70.4461 156.148 70.0489 156.71 69.7068C157.272 69.3524 157.895 69.1752 158.58 69.1752ZM173.709 65.4359V79H171.821V77.6436C171.54 78.0224 171.124 78.3768 170.574 78.7067C170.024 79.0244 169.401 79.1833 168.704 79.1833C167.837 79.1833 167.055 78.9695 166.358 78.5418C165.662 78.1141 165.112 77.5214 164.709 76.7638C164.305 76.0061 164.104 75.1446 164.104 74.1792C164.104 73.2016 164.305 72.3401 164.709 71.5947C165.112 70.8371 165.656 70.2444 166.34 69.8167C167.024 69.389 167.794 69.1752 168.649 69.1752C169.334 69.1752 169.951 69.3157 170.501 69.5968C171.063 69.8778 171.503 70.2078 171.821 70.5866V65.4359H173.709ZM168.961 77.5519C169.548 77.5519 170.061 77.4053 170.501 77.112C170.941 76.8187 171.283 76.4155 171.527 75.9023C171.772 75.389 171.894 74.8147 171.894 74.1792C171.894 73.5316 171.772 72.9572 171.527 72.4562C171.283 71.943 170.941 71.5397 170.501 71.2465C170.061 70.9532 169.548 70.8065 168.961 70.8065C168.387 70.8065 167.88 70.9532 167.44 71.2465C167 71.5397 166.652 71.943 166.395 72.4562C166.151 72.9572 166.028 73.5316 166.028 74.1792C166.028 74.8147 166.151 75.389 166.395 75.9023C166.652 76.4155 167 76.8187 167.44 77.112C167.88 77.4053 168.387 77.5519 168.961 77.5519ZM183.063 69.3768L185.867 76.2505L188.782 69.3768H190.725L186.454 79H185.098L181.028 69.3768H183.063ZM201.654 74.1792C201.654 75.1568 201.434 76.0244 200.994 76.7821C200.566 77.5275 199.98 78.1141 199.234 78.5418C198.501 78.9695 197.676 79.1833 196.76 79.1833C195.843 79.1833 195.012 78.9695 194.267 78.5418C193.521 78.1141 192.929 77.5275 192.489 76.7821C192.061 76.0244 191.847 75.1568 191.847 74.1792C191.847 73.2016 192.061 72.3401 192.489 71.5947C192.929 70.8371 193.521 70.2444 194.267 69.8167C195.012 69.389 195.843 69.1752 196.76 69.1752C197.676 69.1752 198.501 69.389 199.234 69.8167C199.98 70.2444 200.566 70.8371 200.994 71.5947C201.434 72.3401 201.654 73.2016 201.654 74.1792ZM199.729 74.1792C199.741 73.5316 199.613 72.9634 199.344 72.4746C199.088 71.9735 198.733 71.5886 198.281 71.3198C197.829 71.0387 197.322 70.8982 196.76 70.8982C196.198 70.8982 195.684 71.0387 195.22 71.3198C194.768 71.5886 194.407 71.9735 194.139 72.4746C193.882 72.9634 193.76 73.5316 193.772 74.1792C193.76 74.8147 193.882 75.3829 194.139 75.8839C194.407 76.3727 194.768 76.7576 195.22 77.0387C195.684 77.3198 196.198 77.4603 196.76 77.4603C197.322 77.4603 197.829 77.3198 198.281 77.0387C198.733 76.7576 199.088 76.3727 199.344 75.8839C199.613 75.3829 199.741 74.8147 199.729 74.1792ZM209.002 69.1752C209.869 69.1752 210.541 69.3524 211.018 69.7068C211.495 70.0611 211.825 70.5377 212.008 71.1365C212.203 71.7353 212.301 72.4012 212.301 73.1344V79H210.413V73.2627C210.413 72.7984 210.352 72.3829 210.23 72.0163C210.108 71.6497 209.9 71.3625 209.607 71.1548C209.313 70.9471 208.904 70.8615 208.379 70.8982C207.89 70.8982 207.456 71.0021 207.077 71.2098C206.698 71.4175 206.399 71.6925 206.179 72.0346C205.959 72.3768 205.849 72.7556 205.849 73.1711V79H203.961V69.3768H205.849V70.8982C206.142 70.4461 206.57 70.0489 207.132 69.7068C207.694 69.3524 208.317 69.1752 209.002 69.1752ZM228.638 77.0937V79H220.885L220.28 77.4969L224.202 73.0794C224.703 72.5173 225.162 71.9552 225.577 71.3931C225.993 70.831 226.2 70.2566 226.2 69.6701C226.2 69.0591 226.023 68.6008 225.669 68.2953C225.314 67.9776 224.85 67.8188 224.276 67.8188C223.995 67.8188 223.683 67.9043 223.341 68.0754C222.999 68.2465 222.675 68.5153 222.369 68.8819C222.064 69.2485 221.819 69.7312 221.636 70.33L220.115 69.3768C220.445 68.2404 221.013 67.3911 221.819 66.829C222.638 66.2668 223.536 65.9858 224.514 65.9858C225.21 65.9858 225.84 66.1324 226.402 66.4257C226.964 66.7068 227.41 67.11 227.74 67.6355C228.07 68.1609 228.235 68.7903 228.235 69.5235C228.235 70.3666 227.978 71.2037 227.465 72.0346C226.964 72.8534 226.347 73.666 225.614 74.4725L223.212 77.0937H228.638ZM235.026 79.1833C233.999 79.1833 233.132 78.9022 232.423 78.3401C231.727 77.7658 231.201 76.9837 230.847 75.9939C230.492 75.0041 230.315 73.8676 230.315 72.5845C230.315 71.3015 230.492 70.165 230.847 69.1752C231.201 68.1854 231.727 67.4094 232.423 66.8473C233.132 66.273 233.999 65.9858 235.026 65.9858C236.065 65.9858 236.932 66.273 237.629 66.8473C238.325 67.4094 238.851 68.1854 239.205 69.1752C239.572 70.165 239.755 71.3015 239.755 72.5845C239.755 73.8676 239.572 75.0041 239.205 75.9939C238.851 76.9837 238.325 77.7658 237.629 78.3401C236.932 78.9022 236.065 79.1833 235.026 79.1833ZM235.026 77.387C235.906 77.387 236.59 76.9715 237.079 76.1405C237.58 75.3096 237.83 74.1243 237.83 72.5845C237.83 71.0448 237.58 69.8595 237.079 69.0285C236.59 68.1976 235.906 67.7821 235.026 67.7821C234.146 67.7821 233.456 68.1976 232.955 69.0285C232.466 69.8595 232.221 71.0448 232.221 72.5845C232.221 74.1243 232.466 75.3096 232.955 76.1405C233.456 76.9715 234.146 77.387 235.026 77.387ZM248.921 79H242.799V77.0937H244.834V68.5703L242.982 69.5418L242.451 67.8188L245.878 65.9858H246.831V77.0937H248.921V79ZM255.293 65.9491C256.1 65.9491 256.839 66.1385 257.511 66.5174C258.183 66.8962 258.721 67.4094 259.124 68.0571C259.527 68.7047 259.729 69.4318 259.729 70.2383C259.729 71.0204 259.546 71.8941 259.179 72.8595C258.813 73.8126 258.391 74.7963 257.914 75.8106L256.393 79H254.45L254.377 78.8167L256.686 73.9226C256.393 74.1181 256.075 74.2709 255.733 74.3809C255.403 74.4908 255.055 74.5458 254.688 74.5458C253.992 74.5458 253.35 74.3625 252.764 73.9959C252.177 73.6293 251.707 73.1405 251.352 72.5296C250.998 71.9186 250.821 71.2526 250.821 70.5316C250.821 69.6395 251.016 68.8514 251.407 68.167C251.811 67.4705 252.348 66.9267 253.02 66.5357C253.705 66.1446 254.462 65.9491 255.293 65.9491ZM255.147 67.7821C254.536 67.7821 253.998 68.0021 253.534 68.442C253.081 68.8819 252.855 69.499 252.855 70.2933C252.855 70.6843 252.947 71.0693 253.13 71.4481C253.326 71.8147 253.595 72.1202 253.937 72.3646C254.279 72.5968 254.67 72.7129 255.11 72.7129C255.635 72.7129 256.081 72.6029 256.448 72.3829C256.815 72.1507 257.096 71.8513 257.291 71.4847C257.499 71.1182 257.603 70.7271 257.603 70.3116C257.603 69.8595 257.505 69.444 257.31 69.0652C257.114 68.6864 256.833 68.3809 256.466 68.1487C256.1 67.9043 255.66 67.7821 255.147 67.7821Z" fill="#607D8B"/>
<g opacity="0.4">
<g opacity="0.8">
<rect x="50" y="355" width="12" height="12" rx="6" fill="#A11A9A"/>
</g>
</g>
<g opacity="0.8">
<rect x="106" y="355" width="12" height="12" rx="6" fill="#A11A9A"/>
</g>
<rect x="162" y="355" width="12" height="12" rx="6" fill="#263238"/>
<path d="M164.617 383V376.249H162.396V375.07H168.128V376.249H165.84V383H164.617ZM172.398 378.31C172.322 378.273 172.228 378.242 172.115 378.22C172.009 378.189 171.896 378.174 171.775 378.174C171.533 378.174 171.295 378.239 171.061 378.367C170.827 378.488 170.631 378.665 170.472 378.899C170.321 379.126 170.246 379.398 170.246 379.715V383H169.068V377.053H170.246V378.174C170.412 377.812 170.661 377.514 170.993 377.279C171.333 377.045 171.688 376.928 172.058 376.928C172.338 376.928 172.553 376.966 172.704 377.042L172.398 378.31ZM179.321 377.053V383H178.143V382.082C177.962 382.332 177.694 382.566 177.339 382.785C176.984 383.004 176.572 383.113 176.104 383.113C175.606 383.113 175.149 382.981 174.733 382.717C174.326 382.452 174.001 382.086 173.759 381.618C173.518 381.15 173.397 380.614 173.397 380.009C173.397 379.405 173.521 378.873 173.771 378.412C174.02 377.944 174.363 377.582 174.801 377.325C175.239 377.06 175.738 376.928 176.297 376.928C176.712 376.928 177.075 377.019 177.384 377.2C177.701 377.381 177.954 377.593 178.143 377.834V377.053H179.321ZM176.376 382.037C176.738 382.037 177.056 381.95 177.328 381.777C177.599 381.595 177.811 381.354 177.962 381.052C178.113 380.742 178.188 380.395 178.188 380.009C178.188 379.632 178.113 379.292 177.962 378.99C177.811 378.688 177.599 378.45 177.328 378.276C177.056 378.095 176.738 378.004 176.376 378.004C176.029 378.004 175.719 378.091 175.447 378.265C175.175 378.439 174.964 378.677 174.813 378.979C174.662 379.281 174.586 379.624 174.586 380.009C174.586 380.395 174.662 380.742 174.813 381.052C174.964 381.354 175.175 381.595 175.447 381.777C175.719 381.95 176.029 382.037 176.376 382.037ZM185.295 380.632V377.053H186.462V383H185.295V382.048C185.121 382.328 184.865 382.577 184.525 382.796C184.193 383.008 183.792 383.113 183.324 383.113C182.705 383.113 182.203 382.902 181.817 382.479C181.432 382.056 181.24 381.471 181.24 380.723V377.053H182.406V380.406C182.406 380.708 182.452 380.987 182.542 381.244C182.641 381.501 182.792 381.709 182.996 381.867C183.207 382.018 183.475 382.094 183.8 382.094C184.208 382.094 184.559 381.965 184.853 381.709C185.148 381.452 185.295 381.093 185.295 380.632ZM193.607 382.218H193.596C193.354 382.452 193.022 382.66 192.599 382.841C192.176 383.023 191.734 383.113 191.274 383.113C190.654 383.113 190.107 382.985 189.631 382.728C189.163 382.464 188.797 382.105 188.532 381.652C188.268 381.191 188.136 380.67 188.136 380.089C188.136 379.424 188.276 378.858 188.555 378.39C188.834 377.914 189.204 377.551 189.665 377.302C190.126 377.045 190.628 376.917 191.172 376.917C191.67 376.917 192.123 377.042 192.531 377.291C192.939 377.532 193.264 377.868 193.505 378.299C193.747 378.729 193.868 379.232 193.868 379.806L193.856 380.304H189.303C189.371 380.84 189.59 381.267 189.96 381.584C190.337 381.894 190.813 382.048 191.387 382.048C191.802 382.048 192.138 381.973 192.395 381.822C192.652 381.663 192.863 381.512 193.03 381.369L193.607 382.218ZM191.172 377.993C190.726 377.993 190.337 378.099 190.005 378.31C189.673 378.514 189.454 378.869 189.348 379.375H192.678V379.296C192.656 379.039 192.569 378.812 192.418 378.616C192.274 378.42 192.093 378.269 191.874 378.163C191.655 378.05 191.421 377.993 191.172 377.993ZM198.866 378.31C198.791 378.273 198.696 378.242 198.583 378.22C198.477 378.189 198.364 378.174 198.243 378.174C198.002 378.174 197.764 378.239 197.53 378.367C197.295 378.488 197.099 378.665 196.94 378.899C196.789 379.126 196.714 379.398 196.714 379.715V383H195.536V377.053H196.714V378.174C196.88 377.812 197.129 377.514 197.462 377.279C197.801 377.045 198.156 376.928 198.526 376.928C198.806 376.928 199.021 376.966 199.172 377.042L198.866 378.31Z" fill="#263238"/>
<g opacity="0.16">
<rect x="218" y="355" width="12" height="12" rx="6" fill="#263238"/>
</g>
<path d="M219.11 383V375.07H224.253V376.249H220.334V378.446H223.743V379.624H220.334V383H219.11ZM229.261 378.31C229.185 378.273 229.091 378.242 228.978 378.22C228.872 378.189 228.759 378.174 228.638 378.174C228.396 378.174 228.158 378.239 227.924 378.367C227.69 378.488 227.494 378.665 227.335 378.899C227.184 379.126 227.109 379.398 227.109 379.715V383H225.93V377.053H227.109V378.174C227.275 377.812 227.524 377.514 227.856 377.279C228.196 377.045 228.551 376.928 228.921 376.928C229.2 376.928 229.416 376.966 229.567 377.042L229.261 378.31ZM235.754 382.218H235.742C235.501 382.452 235.168 382.66 234.745 382.841C234.323 383.023 233.881 383.113 233.42 383.113C232.801 383.113 232.253 382.985 231.778 382.728C231.309 382.464 230.943 382.105 230.679 381.652C230.414 381.191 230.282 380.67 230.282 380.089C230.282 379.424 230.422 378.858 230.701 378.39C230.981 377.914 231.351 377.551 231.812 377.302C232.272 377.045 232.774 376.917 233.318 376.917C233.817 376.917 234.27 377.042 234.678 377.291C235.085 377.532 235.41 377.868 235.652 378.299C235.893 378.729 236.014 379.232 236.014 379.806L236.003 380.304H231.449C231.517 380.84 231.736 381.267 232.106 381.584C232.484 381.894 232.959 382.048 233.533 382.048C233.949 382.048 234.285 381.973 234.542 381.822C234.798 381.663 235.01 381.512 235.176 381.369L235.754 382.218ZM233.318 377.993C232.873 377.993 232.484 378.099 232.151 378.31C231.819 378.514 231.6 378.869 231.494 379.375H234.825V379.296C234.802 379.039 234.715 378.812 234.564 378.616C234.421 378.42 234.239 378.269 234.02 378.163C233.801 378.05 233.567 377.993 233.318 377.993ZM241.738 380.632V377.053H242.904V383H241.738V382.048C241.564 382.328 241.307 382.577 240.967 382.796C240.635 383.008 240.235 383.113 239.767 383.113C239.147 383.113 238.645 382.902 238.26 382.479C237.875 382.056 237.682 381.471 237.682 380.723V377.053H238.849V380.406C238.849 380.708 238.894 380.987 238.985 381.244C239.083 381.501 239.234 381.709 239.438 381.867C239.649 382.018 239.918 382.094 240.242 382.094C240.65 382.094 241.001 381.965 241.296 381.709C241.59 381.452 241.738 381.093 241.738 380.632ZM250.514 374.617V383H249.347V382.162C249.174 382.396 248.917 382.615 248.577 382.819C248.237 383.015 247.852 383.113 247.422 383.113C246.885 383.113 246.402 382.981 245.972 382.717C245.541 382.452 245.201 382.086 244.952 381.618C244.703 381.15 244.578 380.617 244.578 380.021C244.578 379.417 244.703 378.884 244.952 378.424C245.201 377.955 245.537 377.589 245.96 377.325C246.383 377.06 246.859 376.928 247.388 376.928C247.811 376.928 248.192 377.015 248.532 377.189C248.879 377.362 249.151 377.566 249.347 377.801V374.617H250.514ZM247.58 382.105C247.943 382.105 248.26 382.014 248.532 381.833C248.804 381.652 249.015 381.403 249.166 381.086C249.317 380.768 249.393 380.413 249.393 380.021C249.393 379.621 249.317 379.266 249.166 378.956C249.015 378.639 248.804 378.39 248.532 378.208C248.26 378.027 247.943 377.936 247.58 377.936C247.225 377.936 246.912 378.027 246.64 378.208C246.368 378.39 246.153 378.639 245.994 378.956C245.843 379.266 245.768 379.621 245.768 380.021C245.768 380.413 245.843 380.768 245.994 381.086C246.153 381.403 246.368 381.652 246.64 381.833C246.912 382.014 247.225 382.105 247.58 382.105ZM257.629 382.218H257.618C257.376 382.452 257.044 382.66 256.621 382.841C256.198 383.023 255.756 383.113 255.296 383.113C254.676 383.113 254.129 382.985 253.653 382.728C253.185 382.464 252.819 382.105 252.554 381.652C252.29 381.191 252.158 380.67 252.158 380.089C252.158 379.424 252.298 378.858 252.577 378.39C252.856 377.914 253.226 377.551 253.687 377.302C254.148 377.045 254.65 376.917 255.194 376.917C255.692 376.917 256.145 377.042 256.553 377.291C256.961 377.532 257.286 377.868 257.527 378.299C257.769 378.729 257.89 379.232 257.89 379.806L257.878 380.304H253.325C253.393 380.84 253.612 381.267 253.982 381.584C254.359 381.894 254.835 382.048 255.409 382.048C255.824 382.048 256.16 381.973 256.417 381.822C256.674 381.663 256.885 381.512 257.052 381.369L257.629 382.218ZM255.194 377.993C254.748 377.993 254.359 378.099 254.027 378.31C253.695 378.514 253.476 378.869 253.37 379.375H256.7V379.296C256.678 379.039 256.591 378.812 256.44 378.616C256.296 378.42 256.115 378.269 255.896 378.163C255.677 378.05 255.443 377.993 255.194 377.993Z" fill="#263238"/>
<path d="M117.011 375.07L114.485 383H113.635L111.596 378.186L109.625 383H108.798L106.272 375.07H107.575L109.104 380.032C109.157 380.213 109.202 380.387 109.24 380.553C109.285 380.719 109.323 380.878 109.353 381.029C109.391 380.878 109.436 380.719 109.489 380.553C109.542 380.387 109.606 380.21 109.682 380.021L111.109 376.441H112.208L113.59 380.021C113.673 380.225 113.741 380.41 113.794 380.576C113.846 380.734 113.892 380.882 113.93 381.018C113.952 380.882 113.982 380.731 114.02 380.565C114.065 380.398 114.122 380.21 114.19 379.998L115.697 375.07H117.011ZM122.444 380.632V377.053H123.611V383H122.444V382.048C122.27 382.328 122.014 382.577 121.674 382.796C121.341 383.008 120.941 383.113 120.473 383.113C119.854 383.113 119.351 382.902 118.966 382.479C118.581 382.056 118.389 381.471 118.389 380.723V377.053H119.555V380.406C119.555 380.708 119.601 380.987 119.691 381.244C119.789 381.501 119.941 381.709 120.144 381.867C120.356 382.018 120.624 382.094 120.949 382.094C121.356 382.094 121.708 381.965 122.002 381.709C122.297 381.452 122.444 381.093 122.444 380.632ZM127.55 383H126.384V378.186H125.149V377.053H126.384V375.535H127.55V377.053H128.932V378.186H127.55V383Z" fill="#263238"/>
<path d="M54.6444 375.003C55.0975 375.003 55.5167 375.067 55.9018 375.195C56.287 375.323 56.6268 375.49 56.9213 375.694C57.2159 375.897 57.4462 376.116 57.6123 376.351L56.8194 377.177C56.5173 376.891 56.185 376.656 55.8225 376.475C55.46 376.286 55.0673 376.192 54.6444 376.192C54.1082 376.192 53.6211 376.317 53.1831 376.566C52.7527 376.815 52.4128 377.155 52.1636 377.585C51.9144 378.008 51.7898 378.492 51.7898 379.035C51.7898 379.571 51.922 380.059 52.1863 380.497C52.4506 380.935 52.8018 381.282 53.2398 381.539C53.6853 381.795 54.1687 381.924 54.6897 381.924C55.0673 381.924 55.4223 381.852 55.7546 381.709C56.0868 381.558 56.3549 381.354 56.5588 381.097C56.7703 380.84 56.876 380.546 56.876 380.213C56.876 380.176 56.876 380.153 56.876 380.145H54.6218V378.933H58.1334C58.1485 379.047 58.1598 379.16 58.1674 379.273C58.1825 379.386 58.19 379.5 58.19 379.613C58.19 380.028 58.1259 380.436 57.9975 380.836C57.8766 381.237 57.6841 381.584 57.4198 381.879C57.1177 382.256 56.725 382.558 56.2417 382.785C55.7659 383.004 55.2373 383.113 54.6558 383.113C54.0818 383.113 53.5456 383.011 53.0472 382.807C52.5488 382.596 52.1108 382.305 51.7332 381.935C51.3556 381.565 51.061 381.135 50.8496 380.644C50.6457 380.145 50.5437 379.609 50.5437 379.035C50.5437 378.461 50.6457 377.933 50.8496 377.449C51.061 376.958 51.3518 376.532 51.7218 376.169C52.0994 375.799 52.5374 375.512 53.0359 375.308C53.5343 375.104 54.0705 375.003 54.6444 375.003ZM59.8885 383V374.617H61.0553V383H59.8885ZM67.1205 380.632V377.053H68.2873V383H67.1205V382.048C66.9468 382.328 66.6901 382.577 66.3502 382.796C66.018 383.008 65.6177 383.113 65.1495 383.113C64.5302 383.113 64.028 382.902 63.6429 382.479C63.2577 382.056 63.0652 381.471 63.0652 380.723V377.053H64.2319V380.406C64.2319 380.708 64.2772 380.987 64.3679 381.244C64.466 381.501 64.6171 381.709 64.821 381.867C65.0324 382.018 65.3005 382.094 65.6253 382.094C66.0331 382.094 66.3842 381.965 66.6787 381.709C66.9733 381.452 67.1205 381.093 67.1205 380.632ZM64.4585 375.965C64.1942 375.965 63.9978 375.897 63.8694 375.761C63.7411 375.626 63.6769 375.448 63.6769 375.229C63.6769 375.04 63.7411 374.87 63.8694 374.719C63.9978 374.568 64.1942 374.493 64.4585 374.493C64.7228 374.493 64.9192 374.561 65.0475 374.697C65.1759 374.833 65.2401 375.01 65.2401 375.229C65.2401 375.418 65.1759 375.588 65.0475 375.739C64.9192 375.89 64.7228 375.965 64.4585 375.965ZM66.7241 375.965C66.4597 375.965 66.2634 375.897 66.135 375.761C66.0066 375.626 65.9424 375.448 65.9424 375.229C65.9424 375.04 66.0066 374.87 66.135 374.719C66.2634 374.568 66.4597 374.493 66.7241 374.493C66.9884 374.493 67.1847 374.561 67.3131 374.697C67.4415 374.833 67.5057 375.01 67.5057 375.229C67.5057 375.418 67.4415 375.588 67.3131 375.739C67.1847 375.89 66.9884 375.965 66.7241 375.965ZM71.0715 380.021C71.0715 380.413 71.1583 380.765 71.332 381.074C71.5133 381.376 71.7474 381.618 72.0343 381.799C72.3289 381.973 72.6423 382.06 72.9745 382.06C73.3521 382.06 73.6807 381.962 73.9601 381.765C74.2395 381.569 74.466 381.365 74.6397 381.154L75.2854 381.947C75.1419 382.15 74.9456 382.343 74.6964 382.524C74.4472 382.698 74.164 382.841 73.8468 382.955C73.5296 383.06 73.1973 383.113 72.8499 383.113C72.3062 383.113 71.8153 382.977 71.3773 382.705C70.9393 382.434 70.5919 382.064 70.3352 381.595C70.0859 381.127 69.9613 380.602 69.9613 380.021C69.9613 379.432 70.0859 378.907 70.3352 378.446C70.5919 377.978 70.9393 377.608 71.3773 377.336C71.8153 377.064 72.3062 376.928 72.8499 376.928C73.4012 376.928 73.8921 377.042 74.3226 377.268C74.753 377.487 75.074 377.774 75.2854 378.129L74.6397 378.922C74.466 378.665 74.2168 378.446 73.8921 378.265C73.5749 378.076 73.2653 377.982 72.9632 377.982C72.6083 377.982 72.2873 378.072 72.0004 378.254C71.7134 378.427 71.4868 378.669 71.3207 378.979C71.1545 379.281 71.0715 379.628 71.0715 380.021ZM76.786 383V374.617H77.9528V379.715L80.6375 377.053H82.2121L79.4254 379.67L82.2913 383H80.7961L78.5985 380.44L77.9528 381.052V383H76.786Z" fill="#263238"/>
<g filter="url(#filter1_d)">
<rect x="56" y="125" width="206" height="206" rx="103" fill="#A11A9A"/>
<g style="mix-blend-mode:overlay">
<path d="M159 228H262C262 256.363 250.268 282.041 231.628 300.628L159 228Z" fill="#A11A9A" fill-opacity="0.9"/>
</g>
<g opacity="0.4">
<path d="M159 228H262C262 199.637 250.268 173.959 231.628 155.372L159 228Z" fill="black"/>
</g>
<path d="M159 228V125C187.363 125 213.041 136.732 231.628 155.372L159 228Z" fill="black"/>
</g>
</g>
<defs>
<filter id="filter0_d" x="0" y="0" width="315" height="423" filterUnits="userSpaceOnUse" color-interpolation-filters="sRGB">
<feFlood flood-opacity="0" result="BackgroundImageFix"/>
<feColorMatrix in="SourceAlpha" type="matrix" values="0 0 0 0 0 0 0 0 0 0 0 0 0 0 0 0 0 0 127 0" result="hardAlpha"/>
<feOffset/>
<feGaussianBlur stdDeviation="10"/>
<feComposite in2="hardAlpha" operator="out"/>
<feColorMatrix type="matrix" values="0 0 0 0 0 0 0 0 0 0 0 0 0 0 0 0 0 0 0.15 0"/>
<feBlend mode="normal" in2="BackgroundImageFix" result="effect1_dropShadow"/>
<feBlend mode="normal" in="SourceGraphic" in2="effect1_dropShadow" result="shape"/>
</filter>
<filter id="filter1_d" x="54" y="123" width="214" height="214" filterUnits="userSpaceOnUse" color-interpolation-filters="sRGB">
<feFlood flood-opacity="0" result="BackgroundImageFix"/>
<feColorMatrix in="SourceAlpha" type="matrix" values="0 0 0 0 0 0 0 0 0 0 0 0 0 0 0 0 0 0 127 0" result="hardAlpha"/>
<feOffset dx="2" dy="2"/>
<feGaussianBlur stdDeviation="2"/>
<feComposite in2="hardAlpha" operator="out"/>
<feColorMatrix type="matrix" values="0 0 0 0 0 0 0 0 0 0 0 0 0 0 0 0 0 0 0.25 0"/>
<feBlend mode="normal" in2="BackgroundImageFix" result="effect1_dropShadow"/>
<feBlend mode="normal" in="SourceGraphic" in2="effect1_dropShadow" result="shape"/>
</filter>
</defs>
</svg>
