<svg width="83" height="84" viewBox="0 0 83 84" fill="none" xmlns="http://www.w3.org/2000/svg">
<path d="M0 6.50898C0 3.27875 2.74669 0.597656 6.13966 0.597656H76.5841C79.9771 0.597656 82.7238 3.24645 82.7238 6.50898V77.3803C82.7238 80.6105 79.9771 83.2916 76.5841 83.2916H6.13966C2.74669 83.2916 0 80.6428 0 77.3803V6.50898Z" fill="#006699"/>
<path d="M25.1404 69.7891V32.5768H12.7641V69.7891H25.1404ZM18.9684 27.473C23.2662 27.473 25.9482 24.6304 25.9482 21.0449C25.8836 17.3947 23.2662 14.6167 19.0654 14.6167C14.8322 14.6167 12.0532 17.3947 12.0532 21.0772C12.0532 24.6304 14.7353 27.5053 18.9038 27.5053H18.9684V27.473ZM31.991 69.7891H44.3672V49.051C44.3672 47.9204 44.4642 46.7898 44.7873 46.0146C45.6598 43.818 47.6956 41.4922 51.1208 41.4922C55.6125 41.4922 57.3898 44.9163 57.3898 49.8909V69.8214H69.7983V48.5019C69.7983 37.0668 63.691 31.7046 55.5802 31.7046C53.3072 31.6169 51.0541 32.1587 49.0697 33.2702C47.0853 34.3818 45.4467 36.0198 44.3349 38.0036H44.3995V32.5768H31.991C32.1525 36.0655 31.991 69.7891 31.991 69.7891Z" fill="white"/>
</svg>
