<svg width="409" height="366" viewBox="0 0 409 366" fill="none" xmlns="http://www.w3.org/2000/svg">
<g filter="url(#filter0_d)">
<path d="M24.5 338C22.2909 338 20.5 339.791 20.5 342C20.5 344.209 22.2909 346 24.5 346V338ZM382.504 43.4665C384.419 44.5686 386.864 43.9101 387.967 41.9955C389.069 40.0809 388.41 37.6354 386.496 36.5332L382.504 43.4665ZM24.5 346C85.6988 346 128.643 320.428 161.087 283.825C193.368 247.405 215.307 200.001 234.779 156.251C244.556 134.285 253.692 113.275 263.25 94.7627C272.813 76.2389 282.656 60.5084 293.722 49.0434C304.734 37.634 316.798 30.6058 330.9 29.1044C345.065 27.5963 361.889 31.599 382.504 43.4665L386.496 36.5332C364.986 24.1507 346.451 19.4035 330.053 21.1493C313.592 22.9019 299.891 31.1315 287.966 43.4877C276.094 55.7883 265.827 72.3313 256.141 91.0926C246.449 109.866 237.194 131.153 227.471 152.998C207.943 196.873 186.444 243.157 155.1 278.519C123.919 313.697 83.0512 338 24.5 338V346Z" fill="white"/>
</g>
<defs>
<filter id="filter0_d" x="0.5" y="0.800049" width="408.001" height="365.2" filterUnits="userSpaceOnUse" color-interpolation-filters="sRGB">
<feFlood flood-opacity="0" result="BackgroundImageFix"/>
<feColorMatrix in="SourceAlpha" type="matrix" values="0 0 0 0 0 0 0 0 0 0 0 0 0 0 0 0 0 0 127 0" result="hardAlpha"/>
<feOffset/>
<feGaussianBlur stdDeviation="10"/>
<feComposite in2="hardAlpha" operator="out"/>
<feColorMatrix type="matrix" values="0 0 0 0 0 0 0 0 0 0 0 0 0 0 0 0 0 0 0.2 0"/>
<feBlend mode="normal" in2="BackgroundImageFix" result="effect1_dropShadow"/>
<feBlend mode="normal" in="SourceGraphic" in2="effect1_dropShadow" result="shape"/>
</filter>
</defs>
</svg>
